<?xml version="1.0" encoding="UTF-8"?>
<svg version="1.1" xmlns="http://www.w3.org/2000/svg" width="200" height="200">
<path d="M0 0 C66 0 132 0 200 0 C200 66 200 132 200 200 C134 200 68 200 0 200 C0 134 0 68 0 0 Z " fill="#FEFEFE" transform="translate(0,0)"/>
<path d="M0 0 C0.72058594 -0.00773437 1.44117187 -0.01546875 2.18359375 -0.0234375 C7.48438766 -0.00426646 12.85155188 0.31750599 17.27734375 3.546875 C19.50947852 6.34268017 20.48021093 8.03627809 20.8125 11.625 C20.709375 12.49125 20.60625 13.3575 20.5 14.25 C19.84 14.25 19.18 14.25 18.5 14.25 C18.21125 14.86875 17.9225 15.4875 17.625 16.125 C16.5 18.25 16.5 18.25 14.5 20.25 C13.18 20.25 11.86 20.25 10.5 20.25 C10.5 21.24 10.5 22.23 10.5 23.25 C7.17546919 25.46635387 4.33406881 26.1636805 0.5 27.25 C-1.83556463 28.24477753 -4.16875071 29.24515117 -6.5 30.25 C-9.48412085 31.30041054 -12.48676989 32.28658629 -15.5 33.25 C-15.5 33.91 -15.5 34.57 -15.5 35.25 C-16.16 35.25 -16.82 35.25 -17.5 35.25 C-17.5 35.91 -17.5 36.57 -17.5 37.25 C-18.66917969 37.78109375 -19.83835937 38.3121875 -21.04296875 38.859375 C-22.5913138 39.57255211 -24.13948159 40.28611416 -25.6875 41 C-26.45642578 41.34804687 -27.22535156 41.69609375 -28.01757812 42.0546875 C-32.32830197 44.05279126 -35.85487927 46.14892714 -39.5 49.25 C-41.8125 50 -41.8125 50 -43.5 50.25 C-43.5 50.91 -43.5 51.57 -43.5 52.25 C-45.07421875 53.65234375 -45.07421875 53.65234375 -47.1875 55.1875 C-47.87199219 55.69152344 -48.55648437 56.19554687 -49.26171875 56.71484375 C-51.5 58.25 -51.5 58.25 -54.015625 59.6875 C-60.50929168 63.77156709 -65.34412224 70.23480717 -67.87890625 77.43359375 C-69.64531017 85.44351343 -69.73157792 93.09686582 -65.5 100.25 C-63.33398853 102.27161071 -61.66915711 103.18958675 -58.875 104.1875 C-56.5 105.25 -56.5 105.25 -55.1875 107.375 C-54.960625 107.99375 -54.73375 108.6125 -54.5 109.25 C-61.12117849 109.96969331 -65.91864532 107.77844262 -71.5 104.25 C-71.83 103.59 -72.16 102.93 -72.5 102.25 C-73.221875 101.816875 -73.94375 101.38375 -74.6875 100.9375 C-81.27646165 96.98412301 -85.25778587 93.10592796 -87.1875 85.5625 C-88.26218271 74.17086323 -87.66742332 63.6572431 -80.5 54.25 C-79.984375 53.38375 -79.46875 52.5175 -78.9375 51.625 C-77.5 49.25 -77.5 49.25 -75.9375 47.25 C-74.38677775 45.28586955 -74.38677775 45.28586955 -73.625 42.8125 C-72.17319543 39.50561182 -70.10937713 37.74076908 -67.5 35.25 C-66.61925052 34.15041399 -65.74462986 33.04590107 -64.875 31.9375 C-60.86390551 27.18283447 -55.80680869 23.45741185 -50.5 20.25 C-49.51 20.25 -48.52 20.25 -47.5 20.25 C-47.5 19.59 -47.5 18.93 -47.5 18.25 C-33.55714286 8.25 -33.55714286 8.25 -27.5 8.25 C-27.5 7.59 -27.5 6.93 -27.5 6.25 C-25.64649683 5.62303505 -23.79216141 4.99853034 -21.9375 4.375 C-20.90496094 4.02695313 -19.87242188 3.67890625 -18.80859375 3.3203125 C-17.71675781 2.96710938 -16.62492187 2.61390625 -15.5 2.25 C-13.83130859 1.69699219 -13.83130859 1.69699219 -12.12890625 1.1328125 C-7.97669191 0.12269362 -4.24997133 -0.04561687 0 0 Z " fill="#E58115" transform="translate(103.5,67.75)"/>
<path d="M0 0 C1.16781006 0.00523682 2.33562012 0.01047363 3.53881836 0.01586914 C4.79887695 0.0190918 6.05893555 0.02231445 7.35717773 0.02563477 C8.6976732 0.03399136 10.03816799 0.04245632 11.37866211 0.05102539 C12.72306153 0.05603879 14.06746271 0.06060197 15.41186523 0.06469727 C18.71334151 0.07653051 22.01473014 0.09301568 25.31616211 0.11352539 C25.31616211 0.77352539 25.31616211 1.43352539 25.31616211 2.11352539 C27.95616211 2.11352539 30.59616211 2.11352539 33.31616211 2.11352539 C33.31616211 2.77352539 33.31616211 3.43352539 33.31616211 4.11352539 C34.16887695 4.13479492 34.16887695 4.13479492 35.03881836 4.15649414 C40.45836977 4.49125775 43.39327354 5.52843331 47.57788086 8.93383789 C49.94470541 10.54008736 52.43777131 10.7721226 55.19897461 11.33618164 C61.88768222 13.79199864 66.72153895 20.25562099 70.31616211 26.11352539 C70.95553711 26.73227539 71.59491211 27.35102539 72.25366211 27.98852539 C75.24960418 31.07525358 79.31616211 35.64256563 79.31616211 40.11352539 C75.91019745 39.47587904 73.5560309 38.16440709 70.69116211 36.23852539 C69.52713867 35.46895508 69.52713867 35.46895508 68.33959961 34.68383789 C66.31616211 33.11352539 66.31616211 33.11352539 64.31616211 30.11352539 C61.43123281 28.46214006 61.43123281 28.46214006 58.06616211 26.98852539 C56.94725586 26.47032227 55.82834961 25.95211914 54.67553711 25.41821289 C51.50804319 24.18804665 48.67713223 23.53110047 45.31616211 23.11352539 C45.31616211 22.45352539 45.31616211 21.79352539 45.31616211 21.11352539 C33.43616211 21.44352539 21.55616211 21.77352539 9.31616211 22.11352539 C9.31616211 22.77352539 9.31616211 23.43352539 9.31616211 24.11352539 C6.46348838 24.93159373 3.60921026 25.74310335 0.75366211 26.55102539 C-0.44613281 26.89617188 -0.44613281 26.89617188 -1.67016602 27.24829102 C-5.30007465 28.27059182 -8.70781169 29.11652521 -12.46118164 29.58618164 C-15.9186258 30.15194523 -17.75590523 31.26183122 -20.68383789 33.11352539 C-23.58618164 34.02758789 -23.58618164 34.02758789 -26.62133789 34.73852539 C-27.62036133 34.97829102 -28.61938477 35.21805664 -29.64868164 35.46508789 C-32.65010734 36.10631912 -35.6526291 36.63467572 -38.68383789 37.11352539 C-38.68383789 37.77352539 -38.68383789 38.43352539 -38.68383789 39.11352539 C-39.34383789 39.11352539 -40.00383789 39.11352539 -40.68383789 39.11352539 C-40.68383789 39.77352539 -40.68383789 40.43352539 -40.68383789 41.11352539 C-45.18076167 41.46622529 -48.63279055 41.62832409 -52.74633789 39.61352539 C-54.98285598 36.7276956 -55.28832322 34.76062243 -55.03930664 31.13305664 C-54.02223135 25.35472776 -50.80055564 22.02942764 -46.68383789 18.11352539 C-46.04446289 17.22665039 -45.40508789 16.33977539 -44.74633789 15.42602539 C-42.27021759 12.6497693 -40.24597557 12.00405981 -36.68383789 11.11352539 C-36.68383789 10.45352539 -36.68383789 9.79352539 -36.68383789 9.11352539 C-26.37462138 5.31996538 -16.94524963 2.1036343 -5.90649414 1.35961914 C-3.09696829 1.04854686 -2.97823907 0.12597846 0 0 Z " fill="#1057A3" transform="translate(98.683837890625,28.886474609375)"/>
<path d="M0 0 C1.52028809 -0.03323364 1.52028809 -0.03323364 3.07128906 -0.06713867 C10.11464775 -0.04707049 15.54495025 1.3632786 21.875 4.4375 C21.875 5.0975 21.875 5.7575 21.875 6.4375 C22.535 6.4375 23.195 6.4375 23.875 6.4375 C26.91817381 8.9603384 29.57457641 11.71006435 30.265625 15.68359375 C30.25 17.875 30.25 17.875 29.875 21.4375 C29.215 21.4375 28.555 21.4375 27.875 21.4375 C27.58625 22.365625 27.2975 23.29375 27 24.25 C25.875 27.4375 25.875 27.4375 23.875 30.4375 C23.215 30.4375 22.555 30.4375 21.875 30.4375 C21.38 25.9825 21.38 25.9825 20.875 21.4375 C16.44817509 20.3984622 12.08565368 20.12157049 7.5625 19.875 C6.82193359 19.83181641 6.08136719 19.78863281 5.31835938 19.74414062 C3.50408536 19.63879568 1.6895645 19.53771684 -0.125 19.4375 C-0.125 20.0975 -0.125 20.7575 -0.125 21.4375 C-2.04012272 21.94338147 -3.95716922 22.44198391 -5.875 22.9375 C-6.94234375 23.2159375 -8.0096875 23.494375 -9.109375 23.78125 C-12.125 24.4375 -12.125 24.4375 -16.125 24.4375 C-16.125 25.0975 -16.125 25.7575 -16.125 26.4375 C-18.83379335 27.79189668 -21.13433268 27.50251451 -24.125 27.4375 C-24.125 28.0975 -24.125 28.7575 -24.125 29.4375 C-25.37163331 29.94583591 -26.62249387 30.44381145 -27.875 30.9375 C-28.57109375 31.2159375 -29.2671875 31.494375 -29.984375 31.78125 C-32.125 32.4375 -32.125 32.4375 -36.125 32.4375 C-36.125 33.0975 -36.125 33.7575 -36.125 34.4375 C-38.83379335 35.79189668 -41.13433268 35.50251451 -44.125 35.4375 C-44.35445312 36.07300781 -44.58390625 36.70851562 -44.8203125 37.36328125 C-46.125 39.4375 -46.125 39.4375 -48.3671875 40.23046875 C-49.67042969 40.42576172 -49.67042969 40.42576172 -51 40.625 C-51.86367187 40.76292969 -52.72734375 40.90085938 -53.6171875 41.04296875 C-54.44476563 41.17316406 -55.27234375 41.30335938 -56.125 41.4375 C-56.79660156 41.61539063 -57.46820313 41.79328125 -58.16015625 41.9765625 C-60.38144081 42.49765908 -62.40731566 42.6057091 -64.6875 42.625 C-65.45191406 42.63917969 -66.21632813 42.65335938 -67.00390625 42.66796875 C-69.125 42.4375 -69.125 42.4375 -72.125 40.4375 C-72.95323644 34.52152543 -71.46419983 30.22118516 -68.125 25.4375 C-63.3845989 20.08881735 -59.16179456 17.56841341 -52.125 16.4375 C-52.125 15.7775 -52.125 15.1175 -52.125 14.4375 C-50.805 14.1075 -49.485 13.7775 -48.125 13.4375 C-48.125 12.7775 -48.125 12.1175 -48.125 11.4375 C-44.14439223 10.26673301 -40.20878283 9.18000597 -36.125 8.4375 C-36.125 7.7775 -36.125 7.1175 -36.125 6.4375 C-33.25165898 5.71916475 -30.37800728 5.00420316 -27.5 4.3046875 C-25.4836165 3.78658896 -23.47680364 3.2233637 -21.5 2.5703125 C-14.37941888 0.3451309 -7.40429858 0.0872352 0 0 Z " fill="#86C228" transform="translate(152.125,98.5625)"/>
<path d="M0 0 C1.52028809 -0.03323364 1.52028809 -0.03323364 3.07128906 -0.06713867 C10.11464775 -0.04707049 15.54495025 1.3632786 21.875 4.4375 C21.875 5.0975 21.875 5.7575 21.875 6.4375 C22.535 6.4375 23.195 6.4375 23.875 6.4375 C23.545 7.0975 23.215 7.7575 22.875 8.4375 C22.23981445 7.94926758 21.60462891 7.46103516 20.95019531 6.95800781 C16.76774946 4.89002807 13.27292726 5.04222634 8.671875 5.109375 C7.79347961 5.11124817 6.91508423 5.11312134 6.0100708 5.11505127 C4.1609719 5.12175433 2.31188675 5.13563402 0.46289062 5.15625 C-2.37903904 5.18754448 -5.22041471 5.1972367 -8.0625 5.203125 C-9.85938182 5.2122897 -11.65625797 5.22266377 -13.453125 5.234375 C-14.30722961 5.23862488 -15.16133423 5.24287476 -16.0413208 5.24725342 C-19.89465222 4.91934945 -19.89465222 4.91934945 -23.125 6.4375 C-24.97391946 6.67113881 -26.82988031 6.85053635 -28.6875 7 C-30.20537109 7.12568359 -30.20537109 7.12568359 -31.75390625 7.25390625 C-32.53636719 7.31449219 -33.31882813 7.37507813 -34.125 7.4375 C-34.125 8.0975 -34.125 8.7575 -34.125 9.4375 C-34.785 9.7675 -35.445 10.0975 -36.125 10.4375 C-35.63 12.4175 -35.63 12.4175 -35.125 14.4375 C-34.135 13.7775 -33.145 13.1175 -32.125 12.4375 C-32.125 16.7275 -32.125 21.0175 -32.125 25.4375 C-32.785 25.4375 -33.445 25.4375 -34.125 25.4375 C-34.455 26.7575 -34.785 28.0775 -35.125 29.4375 C-37.105 29.1075 -39.085 28.7775 -41.125 28.4375 C-41.125 30.0875 -41.125 31.7375 -41.125 33.4375 C-40.135 33.4375 -39.145 33.4375 -38.125 33.4375 C-38.125 32.7775 -38.125 32.1175 -38.125 31.4375 C-36.145 31.4375 -34.165 31.4375 -32.125 31.4375 C-33.445 31.7675 -34.765 32.0975 -36.125 32.4375 C-36.125 33.0975 -36.125 33.7575 -36.125 34.4375 C-38.83379335 35.79189668 -41.13433268 35.50251451 -44.125 35.4375 C-44.35445312 36.07300781 -44.58390625 36.70851562 -44.8203125 37.36328125 C-46.125 39.4375 -46.125 39.4375 -48.3671875 40.23046875 C-49.67042969 40.42576172 -49.67042969 40.42576172 -51 40.625 C-51.86367187 40.76292969 -52.72734375 40.90085938 -53.6171875 41.04296875 C-54.44476563 41.17316406 -55.27234375 41.30335938 -56.125 41.4375 C-56.79660156 41.61539063 -57.46820313 41.79328125 -58.16015625 41.9765625 C-60.38144081 42.49765908 -62.40731566 42.6057091 -64.6875 42.625 C-65.45191406 42.63917969 -66.21632813 42.65335938 -67.00390625 42.66796875 C-69.125 42.4375 -69.125 42.4375 -72.125 40.4375 C-72.95323644 34.52152543 -71.46419983 30.22118516 -68.125 25.4375 C-63.3845989 20.08881735 -59.16179456 17.56841341 -52.125 16.4375 C-52.125 15.7775 -52.125 15.1175 -52.125 14.4375 C-50.805 14.1075 -49.485 13.7775 -48.125 13.4375 C-48.125 12.7775 -48.125 12.1175 -48.125 11.4375 C-44.14439223 10.26673301 -40.20878283 9.18000597 -36.125 8.4375 C-36.125 7.7775 -36.125 7.1175 -36.125 6.4375 C-33.25165898 5.71916475 -30.37800728 5.00420316 -27.5 4.3046875 C-25.4836165 3.78658896 -23.47680364 3.2233637 -21.5 2.5703125 C-14.37941888 0.3451309 -7.40429858 0.0872352 0 0 Z " fill="#9DCC51" transform="translate(152.125,98.5625)"/>
<path d="M0 0 C0 0.66 0 1.32 0 2 C-5.41176471 6 -5.41176471 6 -8 6 C-8.66 7.32 -9.32 8.64 -10 10 C-11.32 10 -12.64 10 -14 10 C-14 10.66 -14 11.32 -14 12 C-15.64453125 13.4375 -15.64453125 13.4375 -17.8125 15 C-18.87404297 15.7734375 -18.87404297 15.7734375 -19.95703125 16.5625 C-21.62080729 17.73318754 -23.30730211 18.87153474 -25 20 C-25.4640625 20.928125 -25.4640625 20.928125 -25.9375 21.875 C-27.22741711 24.45483422 -28.96290103 25.96290103 -31 28 C-31.61875 28.969375 -32.2375 29.93875 -32.875 30.9375 C-35 34 -35 34 -38.0625 36.4375 C-41.58237223 39.50802684 -42.47045714 41.66629523 -44 46 C-44.66 46 -45.32 46 -46 46 C-45.979375 47.134375 -45.95875 48.26875 -45.9375 49.4375 C-46 53 -46 53 -47 54 C-47.08700342 55.63472882 -47.10701063 57.27314055 -47.09765625 58.91015625 C-47.09443359 59.89951172 -47.09121094 60.88886719 -47.08789062 61.90820312 C-47.07951172 62.94912109 -47.07113281 63.99003906 -47.0625 65.0625 C-47.05798828 66.10728516 -47.05347656 67.15207031 -47.04882812 68.22851562 C-47.03699913 70.8190666 -47.02051689 73.40950559 -47 76 C-46.01 76.33 -45.02 76.66 -44 77 C-43.67 78.65 -43.34 80.3 -43 82 C-42.01 82 -41.02 82 -40 82 C-38.95107762 83.63631892 -37.95093297 85.30485863 -37 87 C-36.34 87.33 -35.68 87.66 -35 88 C-34.67 86.68 -34.34 85.36 -34 84 C-33.773125 84.61875 -33.54625 85.2375 -33.3125 85.875 C-31.57759619 88.68389189 -30.09359949 88.94536381 -27 90 C-21.35511145 92.43504996 -21.35511145 92.43504996 -19.625 95.1875 C-19.41875 95.785625 -19.2125 96.38375 -19 97 C-25.62117849 97.71969331 -30.41864532 95.52844262 -36 92 C-36.33 91.34 -36.66 90.68 -37 90 C-37.721875 89.566875 -38.44375 89.13375 -39.1875 88.6875 C-45.77646165 84.73412301 -49.75778587 80.85592796 -51.6875 73.3125 C-52.76218271 61.92086323 -52.16742332 51.4072431 -45 42 C-44.484375 41.13375 -43.96875 40.2675 -43.4375 39.375 C-42 37 -42 37 -40.4375 35 C-38.88677775 33.03586955 -38.88677775 33.03586955 -38.125 30.5625 C-36.67319543 27.25561182 -34.60937713 25.49076908 -32 23 C-31.11925052 21.90041399 -30.24462986 20.79590107 -29.375 19.6875 C-25.36390551 14.93283447 -20.30680869 11.20741185 -15 8 C-14.01 8 -13.02 8 -12 8 C-12 7.34 -12 6.68 -12 6 C-9.8828125 4.4921875 -9.8828125 4.4921875 -7.125 2.875 C-6.22007813 2.33617188 -5.31515625 1.79734375 -4.3828125 1.2421875 C-2 0 -2 0 0 0 Z " fill="#C85B34" transform="translate(68,80)"/>
<path d="M0 0 C2.29957426 3.37270892 2.59553846 5.56683717 2.3671875 9.58984375 C1.56056668 13.13001292 -0.22645828 14.70784561 -3.125 16.75 C-4.445 16.75 -5.765 16.75 -7.125 16.75 C-7.40923828 17.66072266 -7.40923828 17.66072266 -7.69921875 18.58984375 C-9.81893751 21.80136286 -12.32358086 22.16588482 -15.9375 23.3125 C-21.0231495 24.93241514 -21.0231495 24.93241514 -25.7421875 27.359375 C-28.44281158 28.93547692 -30.33865915 29.23091061 -33.4375 29.4375 C-34.32050781 29.50324219 -35.20351562 29.56898437 -36.11328125 29.63671875 C-36.77714844 29.67410156 -37.44101563 29.71148437 -38.125 29.75 C-35.09663689 27.23710295 -32.28205294 25.93747221 -28.5625 24.6875 C-25.32529246 23.59378945 -22.99118006 22.66078671 -20.125 20.75 C-17.48482365 19.93220159 -14.82229409 19.3690511 -12.125 18.75 C-12.125 17.76 -12.125 16.77 -12.125 15.75 C-11.361875 15.5025 -10.59875 15.255 -9.8125 15 C-6.86319971 13.62823242 -5.95068981 12.3581283 -4.125 9.75 C-3.465 9.75 -2.805 9.75 -2.125 9.75 C-3.27916316 4.84480657 -4.34791188 1.31724989 -8.125 -2.25 C-19.51608681 -4.89556306 -31.19237991 -3.85213389 -42.171875 -0.22265625 C-44.82189002 0.65016616 -47.38107512 1.26727248 -50.125 1.75 C-50.125 2.41 -50.125 3.07 -50.125 3.75 C-58.045 7.71 -58.045 7.71 -66.125 11.75 C-65.465 10.43 -64.805 9.11 -64.125 7.75 C-62.79166667 7.41666667 -61.45833333 7.08333333 -60.125 6.75 C-58.95833333 4.83333333 -58.95833333 4.83333333 -58.125 2.75 C-55.76346645 0.38846645 -54.605908 0.2700425 -51.375 -0.3125 C-50.48554687 -0.47621094 -49.59609375 -0.63992187 -48.6796875 -0.80859375 C-42.58986486 -1.86081081 -42.58986486 -1.86081081 -40.125 -2.25 C-40.125 -2.91 -40.125 -3.57 -40.125 -4.25 C-24.85174071 -8.09693787 -13.29201583 -9.5702514 0 0 Z " fill="#FBEEB4" transform="translate(126.125,72.25)"/>
<path d="M0 0 C0.8850119 0.00141495 1.7700238 0.0028299 2.68185425 0.00428772 C5.51449941 0.00989485 8.34706614 0.02244854 11.1796875 0.03515625 C13.09765511 0.04017033 15.01562396 0.0447334 16.93359375 0.04882812 C21.64065532 0.05986659 26.3476581 0.077136 31.0546875 0.09765625 C31.0546875 0.75765625 31.0546875 1.41765625 31.0546875 2.09765625 C33.6946875 2.42765625 36.3346875 2.75765625 39.0546875 3.09765625 C39.0546875 3.75765625 39.0546875 4.41765625 39.0546875 5.09765625 C39.9621875 5.22140625 40.8696875 5.34515625 41.8046875 5.47265625 C44.75090351 6.03923625 46.43013982 6.78538241 49.0546875 8.09765625 C50.3835873 8.42850267 51.71760184 8.73912252 53.0546875 9.03515625 C56.31600693 9.80789425 58.62700495 10.6699737 61.0546875 13.09765625 C61.0546875 13.75765625 61.0546875 14.41765625 61.0546875 15.09765625 C61.65410156 15.19304688 62.25351563 15.2884375 62.87109375 15.38671875 C65.53223201 16.25313586 66.31351786 17.26853047 67.9921875 19.47265625 C69.95615744 21.93509572 71.02836229 23.08361614 73.8671875 24.59765625 C76.0546875 26.09765625 76.0546875 26.09765625 76.8671875 29.78515625 C76.9290625 30.87828125 76.9909375 31.97140625 77.0546875 33.09765625 C77.7146875 33.09765625 78.3746875 33.09765625 79.0546875 33.09765625 C79.7146875 35.40765625 80.3746875 37.71765625 81.0546875 40.09765625 C78.43796578 38.78929539 78.05799925 37.43641943 76.7421875 34.84765625 C74.62396474 30.91558878 72.3519835 28.14765505 69.0546875 25.09765625 C67.8790625 23.61265625 67.8790625 23.61265625 66.6796875 22.09765625 C61.71928905 16.42862945 57.31044448 14.07649906 50.0546875 12.09765625 C49.1059375 11.43765625 48.1571875 10.77765625 47.1796875 10.09765625 C43.26420948 7.59175032 39.58818988 6.86331443 35.0546875 6.09765625 C35.0546875 5.43765625 35.0546875 4.77765625 35.0546875 4.09765625 C32.4146875 4.09765625 29.7746875 4.09765625 27.0546875 4.09765625 C27.0546875 3.43765625 27.0546875 2.77765625 27.0546875 2.09765625 C23.08515851 2.21564569 19.11587969 2.33987424 15.14672852 2.4699707 C13.79554603 2.51336848 12.44430697 2.55503995 11.09301758 2.5949707 C9.15432049 2.65255577 7.21582474 2.71679923 5.27734375 2.78125 C4.10953369 2.81790771 2.94172363 2.85456543 1.73852539 2.89233398 C-0.86311045 2.79841813 -0.86311045 2.79841813 -1.9453125 4.09765625 C-3.50533678 4.23396905 -5.06888426 4.33024751 -6.6328125 4.41015625 C-14.19400333 5.02376074 -22.33616177 6.68889574 -29.10546875 10.2265625 C-30.9453125 11.09765625 -30.9453125 11.09765625 -34.9453125 11.09765625 C-34.9453125 9.09765625 -34.9453125 9.09765625 -33.5703125 6.97265625 C-29.58953002 4.1292402 -25.68778263 4.77183769 -20.9453125 5.09765625 C-20.9453125 4.43765625 -20.9453125 3.77765625 -20.9453125 3.09765625 C-20.24664062 2.96488281 -19.54796875 2.83210938 -18.828125 2.6953125 C-17.46300781 2.43041016 -17.46300781 2.43041016 -16.0703125 2.16015625 C-14.71292969 1.89912109 -14.71292969 1.89912109 -13.328125 1.6328125 C-8.693386 0.59189571 -4.87390792 -0.02909414 0 0 Z " fill="#D8EAF8" transform="translate(96.9453125,26.90234375)"/>
<path d="M0 0 C1.32 0.33 2.64 0.66 4 1 C4 1.66 4 2.32 4 3 C6.475 3.495 6.475 3.495 9 4 C9.97403725 7.26225174 10.13415799 10.22738661 10.125 13.625 C10.12886719 15.06746094 10.12886719 15.06746094 10.1328125 16.5390625 C10 19 10 19 9 21 C8.34 21 7.68 21 7 21 C6.9071875 22.0828125 6.9071875 22.0828125 6.8125 23.1875 C5.75543353 26.84657625 3.79449929 28.49211602 1 31 C-2 30 -2 30 -3.25 27.8125 C-4.12953106 24.51425852 -3.64212493 22.31611662 -3 19 C-6.31232698 18.91165316 -9.62434435 18.85916416 -12.9375 18.8125 C-14.32678711 18.77479492 -14.32678711 18.77479492 -15.74414062 18.73632812 C-24.47092065 18.64446728 -31.36200342 20.79910188 -39 25 C-39.33 25.33 -39.66 25.66 -40 26 C-41.51928038 26.07179964 -43.04167482 26.08392007 -44.5625 26.0625 C-45.38878906 26.05347656 -46.21507813 26.04445312 -47.06640625 26.03515625 C-48.02353516 26.01775391 -48.02353516 26.01775391 -49 26 C-48.01 25.67 -47.02 25.34 -46 25 C-46 24.34 -46 23.68 -46 23 C-42.04 22.505 -42.04 22.505 -38 22 C-38 21.34 -38 20.68 -38 20 C-36.08487728 19.49411853 -34.16783078 18.99551609 -32.25 18.5 C-31.18265625 18.2215625 -30.1153125 17.943125 -29.015625 17.65625 C-26 17 -26 17 -22 17 C-22 16.34 -22 15.68 -22 15 C-19.43721301 14.94579299 -16.87558517 14.90622993 -14.3125 14.875 C-13.59126953 14.85824219 -12.87003906 14.84148437 -12.12695312 14.82421875 C-7.97642808 14.78631441 -4.67574874 14.98993472 -1 17 C0.4783226 19.95664519 0.06032783 22.74229737 0 26 C0.66 26 1.32 26 2 26 C2.433125 24.88625 2.433125 24.88625 2.875 23.75 C3.82302644 21.43260203 4.84845911 19.22082885 6 17 C6.66 17 7.32 17 8 17 C7.93999894 15.3739713 7.8512115 13.74898451 7.75 12.125 C7.70359375 11.22007813 7.6571875 10.31515625 7.609375 9.3828125 C7.30773437 8.20332031 7.30773437 8.20332031 7 7 C5.04784655 5.83638482 5.04784655 5.83638482 3 5 C2.505 3.515 2.505 3.515 2 2 C1.34 2 0.68 2 0 2 C0 1.34 0 0.68 0 0 Z " fill="#E0F0C5" transform="translate(174,103)"/>
<path d="M0 0 C0.72058594 -0.00773437 1.44117188 -0.01546875 2.18359375 -0.0234375 C7.48438766 -0.00426646 12.85155188 0.31750599 17.27734375 3.546875 C19.50947852 6.34268017 20.48021093 8.03627809 20.8125 11.625 C20.709375 12.49125 20.60625 13.3575 20.5 14.25 C19.84 14.25 19.18 14.25 18.5 14.25 C18.066875 15.178125 18.066875 15.178125 17.625 16.125 C16.5 18.25 16.5 18.25 14.5 20.25 C13.18 20.25 11.86 20.25 10.5 20.25 C10.5 21.24 10.5 22.23 10.5 23.25 C7.05549263 25.54633824 4.56187717 25.79016485 0.5 26.25 C0.5 25.59 0.5 24.93 0.5 24.25 C2.15 24.25 3.8 24.25 5.5 24.25 C5.5 23.26 5.5 22.27 5.5 21.25 C6.82 21.25 8.14 21.25 9.5 21.25 C9.5 20.59 9.5 19.93 9.5 19.25 C10.49 19.25 11.48 19.25 12.5 19.25 C12.5825 18.651875 12.665 18.05375 12.75 17.4375 C13.70455872 14.6533704 15.07132271 13.81688858 17.5 12.25 C17.005 9.775 17.005 9.775 16.5 7.25 C1.96737522 1.78738217 -8.45037256 2.95121451 -22.5 9.25 C-30.43736456 12.5108179 -30.43736456 12.5108179 -34.5 11.25 C-29.75 8.25 -29.75 8.25 -27.5 8.25 C-27.5 7.59 -27.5 6.93 -27.5 6.25 C-25.64649683 5.62303505 -23.79216141 4.99853034 -21.9375 4.375 C-20.90496094 4.02695313 -19.87242188 3.67890625 -18.80859375 3.3203125 C-17.71675781 2.96710938 -16.62492187 2.61390625 -15.5 2.25 C-14.38753906 1.88132812 -13.27507812 1.51265625 -12.12890625 1.1328125 C-7.97669191 0.12269362 -4.24997133 -0.04561687 0 0 Z " fill="#F2C139" transform="translate(103.5,67.75)"/>
<path d="M0 0 C-5.24175152 2.34205919 -10.53262809 4.25192871 -16 6 C-16 6.66 -16 7.32 -16 8 C-16.66 8 -17.32 8 -18 8 C-18 8.66 -18 9.32 -18 10 C-19.16917969 10.53109375 -20.33835938 11.0621875 -21.54296875 11.609375 C-23.0913138 12.32255211 -24.63948159 13.03611416 -26.1875 13.75 C-26.95642578 14.09804687 -27.72535156 14.44609375 -28.51757812 14.8046875 C-32.82830197 16.80279126 -36.35487927 18.89892714 -40 22 C-42.3125 22.75 -42.3125 22.75 -44 23 C-44 23.66 -44 24.32 -44 25 C-45.57421875 26.40234375 -45.57421875 26.40234375 -47.6875 27.9375 C-48.37199219 28.44152344 -49.05648437 28.94554688 -49.76171875 29.46484375 C-52 31 -52 31 -54.5078125 32.41796875 C-57.21765347 34.13816561 -59.06758625 35.97215772 -61.1875 38.375 C-61.86167969 39.12523437 -62.53585938 39.87546875 -63.23046875 40.6484375 C-65.02327943 43.03093646 -66.03282365 45.19270865 -67 48 C-68 46 -68 46 -67.0625 42.875 C-66.711875 41.92625 -66.36125 40.9775 -66 40 C-65.34 40 -64.68 40 -64 40 C-63.7525 39.05125 -63.505 38.1025 -63.25 37.125 C-62 34 -62 34 -59.9375 32.8125 C-59.298125 32.544375 -58.65875 32.27625 -58 32 C-57.67 31.01 -57.34 30.02 -57 29 C-55.14453125 27.5703125 -55.14453125 27.5703125 -52.8125 26.125 C-49.95996382 24.31057034 -47.32634417 22.50978545 -44.8125 20.25 C-41.9094795 17.9275836 -39.57034726 16.93509095 -36 16 C-36 15.34 -36 14.68 -36 14 C-32 13 -28 12 -24 11 C-24 10.01 -24 9.02 -24 8 C-22.68 8 -21.36 8 -20 8 C-19.67 7.01 -19.34 6.02 -19 5 C-17.2578125 4.05078125 -17.2578125 4.05078125 -15.125 3.3125 C-14.42632812 3.06113281 -13.72765625 2.80976562 -13.0078125 2.55078125 C-11 2 -11 2 -8 2 C-8 1.34 -8 0.68 -8 0 C-2.25 -1.125 -2.25 -1.125 0 0 Z " fill="#E7843E" transform="translate(104,95)"/>
<path d="M0 0 C2.31 0.33 4.62 0.66 7 1 C3.92307254 3.6815279 1.80265337 4.42087807 -2.25 4.6875 C-3.14203125 4.75324219 -4.0340625 4.81898437 -4.953125 4.88671875 C-5.62859375 4.92410156 -6.3040625 4.96148437 -7 5 C-7 5.66 -7 6.32 -7 7 C-11.22949995 9.41685712 -14.12335991 10.34833144 -19 10 C-19 10.66 -19 11.32 -19 12 C-20.32 12.33 -21.64 12.66 -23 13 C-23 13.66 -23 14.32 -23 15 C-23.58007812 15.23074219 -24.16015625 15.46148437 -24.7578125 15.69921875 C-32.4680221 18.91816764 -37.67711616 22.17464819 -41.25390625 29.99609375 C-42.23495013 32.63104407 -42.72076781 35.20767812 -43 38 C-43.66 38 -44.32 38 -45 38 C-45 35.36 -45 32.72 -45 30 C-44.34 30 -43.68 30 -43 30 C-43.1546875 28.39125 -43.1546875 28.39125 -43.3125 26.75 C-43 23 -43 23 -40.625 20.75 C-39.75875 20.1725 -38.8925 19.595 -38 19 C-37.34 18.01 -36.68 17.02 -36 16 C-33.67793475 15.29508733 -31.34406932 14.62787571 -29 14 C-28.34 13.34 -27.68 12.68 -27 12 C-25.68 12 -24.36 12 -23 12 C-22.566875 11.071875 -22.566875 11.071875 -22.125 10.125 C-21 8 -21 8 -19 6 C-15.875 5.875 -15.875 5.875 -13 6 C-13 5.34 -13 4.68 -13 4 C-11.71802734 3.81824219 -11.71802734 3.81824219 -10.41015625 3.6328125 C-9.30542969 3.46523437 -8.20070312 3.29765625 -7.0625 3.125 C-5.96035156 2.96257812 -4.85820313 2.80015625 -3.72265625 2.6328125 C-2.82417969 2.42398438 -1.92570312 2.21515625 -1 2 C-0.67 1.34 -0.34 0.68 0 0 Z " fill="#CBE3A2" transform="translate(123,100)"/>
<path d="M0 0 C0 0.99 0 1.98 0 3 C-0.99 3 -1.98 3 -3 3 C-3 3.66 -3 4.32 -3 5 C-4.75 7.125 -4.75 7.125 -7 9 C-8.32 9 -9.64 9 -11 9 C-11.33 9.99 -11.66 10.98 -12 12 C-13.98689731 13.35278115 -15.98745218 14.68568305 -18 16 C-18.66 16.99 -19.32 17.98 -20 19 C-20.66 19 -21.32 19 -22 19 C-22.33 20.65 -22.66 22.3 -23 24 C-23.66 24 -24.32 24 -25 24 C-28.50438316 30.75845324 -30.07894222 36.34057848 -29 44 C-27.42678071 47.67864288 -25.66418734 51.16790633 -22 53 C-22 53.99 -22 54.98 -22 56 C-25.98173951 54.29354021 -28.76350308 51.95446288 -31.08984375 48.27734375 C-33.78420693 41.53565389 -32.8147555 32.90857887 -30.125 26.3125 C-25.64222938 17.70354279 -18.87167535 10.08097066 -10 6 C-9.195625 5.5875 -8.39125 5.175 -7.5625 4.75 C-7.046875 4.5025 -6.53125 4.255 -6 4 C-6 3.34 -6 2.68 -6 2 C-2.25 0 -2.25 0 0 0 Z " fill="#F0C5AB" transform="translate(66,116)"/>
<path d="M0 0 C1.12775345 0.00212242 1.12775345 0.00212242 2.27828979 0.00428772 C4.6829626 0.0098916 7.08754277 0.02244468 9.4921875 0.03515625 C11.12109241 0.04017075 12.74999877 0.04473375 14.37890625 0.04882812 C18.37503577 0.05986228 22.37109592 0.07712946 26.3671875 0.09765625 C26.3671875 0.75765625 26.3671875 1.41765625 26.3671875 2.09765625 C28.254375 2.15953125 28.254375 2.15953125 30.1796875 2.22265625 C36.3533839 2.86165349 41.15498306 5.91187896 46.3671875 9.09765625 C43.26633333 10.64808334 41.16385185 9.30552248 37.9296875 8.28515625 C36.77597656 7.92808594 35.62226563 7.57101563 34.43359375 7.203125 C31.3671875 6.09765625 31.3671875 6.09765625 28.3671875 4.09765625 C25.86919825 3.90193827 23.48581413 3.81752152 20.98828125 3.83203125 C20.2615773 3.8301178 19.53487335 3.82820435 18.78614807 3.82623291 C17.24536799 3.82487195 15.70457641 3.8285622 14.16381836 3.83691406 C11.83745544 3.84750704 9.51188403 3.83707281 7.18554688 3.82421875 C0.08557673 3.81839926 -6.77035669 3.92573251 -13.7043457 5.65673828 C-16.36245679 6.26447959 -18.92131575 6.24036661 -21.6328125 6.09765625 C-17.80763737 3.7069218 -14.03615726 3.53799073 -9.6328125 3.09765625 C-9.6328125 2.43765625 -9.6328125 1.77765625 -9.6328125 1.09765625 C-6.56686656 -0.43531672 -3.36169397 -0.0236583 0 0 Z " fill="#B3C6DE" transform="translate(117.6328125,49.90234375)"/>
<path d="M0 0 C1.16781006 0.00523682 2.33562012 0.01047363 3.53881836 0.01586914 C4.79887695 0.0190918 6.05893555 0.02231445 7.35717773 0.02563477 C8.6976732 0.03399136 10.03816799 0.04245632 11.37866211 0.05102539 C12.72306153 0.05603879 14.06746271 0.06060197 15.41186523 0.06469727 C18.71334151 0.07653051 22.01473014 0.09301568 25.31616211 0.11352539 C25.31616211 0.77352539 25.31616211 1.43352539 25.31616211 2.11352539 C27.95616211 2.11352539 30.59616211 2.11352539 33.31616211 2.11352539 C33.31616211 2.77352539 33.31616211 3.43352539 33.31616211 4.11352539 C33.91944336 4.13930664 34.52272461 4.16508789 35.14428711 4.19165039 C41.75355491 4.6606952 41.75355491 4.6606952 44.87866211 7.17602539 C45.35303711 7.81540039 45.82741211 8.45477539 46.31616211 9.11352539 C42.79910253 8.46080983 39.42291134 7.59959515 36.00366211 6.55102539 C34.67915039 6.1469043 34.67915039 6.1469043 33.32788086 5.73461914 C32.66401367 5.5296582 32.00014648 5.32469727 31.31616211 5.11352539 C31.31616211 4.45352539 31.31616211 3.79352539 31.31616211 3.11352539 C16.79616211 3.11352539 2.27616211 3.11352539 -12.68383789 3.11352539 C-13.01383789 4.10352539 -13.34383789 5.09352539 -13.68383789 6.11352539 C-14.77051758 6.2044043 -14.77051758 6.2044043 -15.87915039 6.29711914 C-20.85500322 6.72835972 -25.7706418 7.18400181 -30.68383789 8.11352539 C-30.68383789 9.10352539 -30.68383789 10.09352539 -30.68383789 11.11352539 C-32.66383789 11.11352539 -34.64383789 11.11352539 -36.68383789 11.11352539 C-36.68383789 10.45352539 -36.68383789 9.79352539 -36.68383789 9.11352539 C-26.37462138 5.31996538 -16.94524963 2.1036343 -5.90649414 1.35961914 C-3.09696829 1.04854686 -2.97823907 0.12597846 0 0 Z " fill="#2787C3" transform="translate(98.683837890625,28.886474609375)"/>
<path d="M0 0 C3.34566008 1.39883202 4.94288714 2.91231028 7 5.875 C8.61161076 8.12883159 10.06850752 10.06643153 12.0625 12 C15.02288783 15.05588421 19 19.5901801 19 24 C15.59403535 23.36235365 13.23986879 22.0508817 10.375 20.125 C9.21097656 19.35542969 9.21097656 19.35542969 8.0234375 18.5703125 C6 17 6 17 4 14 C1.83313755 12.85529503 -0.38286473 11.80167733 -2.625 10.8125 C-3.81351563 10.28269531 -5.00203125 9.75289062 -6.2265625 9.20703125 C-7.14179688 8.80871094 -8.05703125 8.41039062 -9 8 C-9 7.67 -9 7.34 -9 7 C-7.02 7 -5.04 7 -3 7 C-3 7.66 -3 8.32 -3 9 C-1.02 8.34 0.96 7.68 3 7 C2.67 5.68 2.34 4.36 2 3 C1.34 3 0.68 3 0 3 C0 2.01 0 1.02 0 0 Z " fill="#3D63A4" transform="translate(159,45)"/>
<path d="M0 0 C3.96 0 7.92 0 12 0 C12 0.66 12 1.32 12 2 C12.9075 2.12375 13.815 2.2475 14.75 2.375 C17.69621601 2.94158 19.37545232 3.68772616 22 5 C23.3288998 5.33084642 24.66291434 5.64146627 26 5.9375 C29.26131943 6.710238 31.57231745 7.57231745 34 10 C34 10.66 34 11.32 34 12 C34.59941406 12.09539063 35.19882813 12.19078125 35.81640625 12.2890625 C38.47754451 13.15547961 39.25883036 14.17087422 40.9375 16.375 C42.90146994 18.83743947 43.97367479 19.98595989 46.8125 21.5 C49 23 49 23 49.8125 26.6875 C49.874375 27.780625 49.93625 28.87375 50 30 C50.66 30 51.32 30 52 30 C52.66 32.31 53.32 34.62 54 37 C51.38327828 35.69163914 51.00331175 34.33876318 49.6875 31.75 C47.56927724 27.81793253 45.297296 25.0499988 42 22 C41.21625 21.01 40.4325 20.02 39.625 19 C34.66460155 13.3309732 30.25575698 10.97884281 23 9 C22.05125 8.34 21.1025 7.68 20.125 7 C16.20952198 4.49409407 12.53350238 3.76565818 8 3 C8 2.34 8 1.68 8 1 C5.36 1 2.72 1 0 1 C0 0.67 0 0.34 0 0 Z " fill="#B5C5E4" transform="translate(124,30)"/>
<path d="M0 0 C-0.99 0 -1.98 0 -3 0 C-3 0.66 -3 1.32 -3 2 C-4.32 2 -5.64 2 -7 2 C-7 2.66 -7 3.32 -7 4 C-7.95712891 4.27263672 -7.95712891 4.27263672 -8.93359375 4.55078125 C-9.75988281 4.80214844 -10.58617187 5.05351562 -11.4375 5.3125 C-12.26121094 5.55613281 -13.08492187 5.79976562 -13.93359375 6.05078125 C-14.61550781 6.36402344 -15.29742187 6.67726562 -16 7 C-16.33 7.99 -16.66 8.98 -17 10 C-19.64 10.33 -22.28 10.66 -25 11 C-25.33 11.99 -25.66 12.98 -26 14 C-28.6058889 14.13494246 -31.20482111 14.23402299 -33.8125 14.3125 C-34.91948242 14.3753418 -34.91948242 14.3753418 -36.04882812 14.43945312 C-38.20703125 14.48828125 -38.20703125 14.48828125 -42 14 C-44.01171875 11.48046875 -44.01171875 11.48046875 -45 9 C-44.01 9.33 -43.02 9.66 -42 10 C-34.99444909 10.33359766 -27.74301929 10.06877003 -21 8 C-19.64784598 6.68575684 -18.31304255 5.35331993 -17 4 C-14.859375 3.390625 -14.859375 3.390625 -12.75 3.25 C-11.5125 3.1675 -10.275 3.085 -9 3 C-9 2.34 -9 1.68 -9 1 C-5.57367167 -0.61798838 -3.61944899 -1.34053666 0 0 Z " fill="#DAEFBD" transform="translate(125,130)"/>
<path d="M0 0 C2.46800047 1.15173355 4.04783565 2.04783565 6 4 C6.5 7.3125 6.5 7.3125 6 11 C3.1875 13.625 3.1875 13.625 0 16 C-0.41894531 16.81984375 -0.83789062 17.6396875 -1.26953125 18.484375 C-3.6437479 21.93583216 -5.91950984 22.3957039 -9.875 23.625 C-14.9284649 25.20674975 -14.9284649 25.20674975 -19.61328125 27.60546875 C-22.31638997 29.18486288 -24.21007746 29.48067183 -27.3125 29.6875 C-28.19550781 29.75324219 -29.07851562 29.81898437 -29.98828125 29.88671875 C-30.98408203 29.94279297 -30.98408203 29.94279297 -32 30 C-28.97163689 27.48710295 -26.15705294 26.18747221 -22.4375 24.9375 C-19.20029246 23.84378945 -16.86618006 22.91078671 -14 21 C-11.35982365 20.18220159 -8.69729409 19.6190511 -6 19 C-6 18.01 -6 17.02 -6 16 C-5.236875 15.7525 -4.47375 15.505 -3.6875 15.25 C-0.73819971 13.87823242 0.17431019 12.6081283 2 10 C2.66 10 3.32 10 4 10 C2.99806563 6.20696275 2.18975773 3.28463659 0 0 Z " fill="#F8CD9B" transform="translate(120,72)"/>
<path d="M0 0 C-4.63735878 5.72850202 -12.74053421 6.78627713 -19.5234375 8.3515625 C-21.92631176 8.7579971 -21.92631176 8.7579971 -23 10 C-26.5 10.5 -26.5 10.5 -30 11 C-30.33 11.33 -30.66 11.66 -31 12 C-33.33297433 12.04092937 -35.66705225 12.04241723 -38 12 C-37.34 11.67 -36.68 11.34 -36 11 C-36 10.34 -36 9.68 -36 9 C-31.59658785 7.20601727 -27.49915225 5.82912289 -22.8125 5 C-18.89746482 4.28601182 -16.3967121 3.09028437 -13 1 C-8.44421484 -0.41955624 -4.64247796 -1.47380253 0 0 Z " fill="#E3EFF6" transform="translate(96,57)"/>
<path d="M0 0 C0 0.66 0 1.32 0 2 C-5.41176471 6 -5.41176471 6 -8 6 C-8.66 7.32 -9.32 8.64 -10 10 C-11.32 10 -12.64 10 -14 10 C-14 10.66 -14 11.32 -14 12 C-15.36328125 13.2265625 -15.36328125 13.2265625 -17.3125 14.625 C-18.034375 15.1509375 -18.75625 15.676875 -19.5 16.21875 C-21.28896317 17.49338626 -23.08098242 18.76373758 -24.875 20.03125 C-25.844375 20.7221875 -26.81375 21.413125 -27.8125 22.125 C-28.72644531 22.76695313 -29.64039063 23.40890625 -30.58203125 24.0703125 C-32.85927322 25.88769139 -34.38858792 27.59091217 -36 30 C-36.66 29.67 -37.32 29.34 -38 29 C-35.30273102 25.40364136 -32.53284179 22.75733993 -29 20 C-28.2575 19.236875 -27.515 18.47375 -26.75 17.6875 C-16.8372093 8 -16.8372093 8 -12 8 C-12 7.34 -12 6.68 -12 6 C-9.8828125 4.4921875 -9.8828125 4.4921875 -7.125 2.875 C-6.22007813 2.33617188 -5.31515625 1.79734375 -4.3828125 1.2421875 C-2 0 -2 0 0 0 Z " fill="#F0A952" transform="translate(68,80)"/>
<path d="M0 0 C0 3 0 3 -1 5 C-1.09534254 6.6853196 -1.12985758 8.37449266 -1.125 10.0625 C-1.12757812 10.96097656 -1.13015625 11.85945313 -1.1328125 12.78515625 C-1.24738223 14.97378893 -1.24738223 14.97378893 0 16 C1.34747084 16.23075082 2.70377565 16.41153063 4.0625 16.5625 C5.361875 16.706875 6.66125 16.85125 8 17 C8 16.01 8 15.02 8 14 C18.37357631 10.55580866 18.37357631 10.55580866 24 11 C24 10.34 24 9.68 24 9 C31.625 8 31.625 8 35 8 C31.41292123 10.35628294 28.23447227 11.64778127 24.0625 12.625 C23.06347656 12.86476563 22.06445312 13.10453125 21.03515625 13.3515625 C18.03373055 13.99279373 15.03120879 14.52115033 12 15 C12 15.66 12 16.32 12 17 C11.34 17 10.68 17 10 17 C10 17.66 10 18.32 10 19 C5.50307622 19.3526999 2.05104734 19.5147987 -2.0625 17.5 C-4.29487762 14.61951275 -4.59444339 12.65612768 -4.37109375 9.03515625 C-3.75662219 5.66526483 -2.45112206 2.45112206 0 0 Z " fill="#656EA7" transform="translate(48,51)"/>
<path d="M0 0 C4.29 0 8.58 0 13 0 C13 0.66 13 1.32 13 2 C13.598125 2.103125 14.19625 2.20625 14.8125 2.3125 C17.42368447 3.13315798 18.44318272 3.74261495 20 6 C20.1875 9.1875 20.1875 9.1875 20 12 C19.34 12 18.68 12 18 12 C17.566875 12.928125 17.566875 12.928125 17.125 13.875 C16 16 16 16 14 18 C12.68 18 11.36 18 10 18 C10 18.99 10 19.98 10 21 C6.55549263 23.29633824 4.06187717 23.54016485 0 24 C0 23.34 0 22.68 0 22 C1.65 22 3.3 22 5 22 C5 21.01 5 20.02 5 19 C6.32 19 7.64 19 9 19 C9 18.34 9 17.68 9 17 C9.99 17 10.98 17 12 17 C12.0825 16.401875 12.165 15.80375 12.25 15.1875 C13.20455872 12.4033704 14.57132271 11.56688858 17 10 C16.67 8.35 16.34 6.7 16 5 C10.66164461 3.07528683 5.65020618 1.60108576 0 1 C0 0.67 0 0.34 0 0 Z " fill="#F0AC23" transform="translate(104,70)"/>
<path d="M0 0 C1.98 0.495 1.98 0.495 4 1 C4 1.66 4 2.32 4 3 C5.65 3.33 7.3 3.66 9 4 C9.97403725 7.26225174 10.13415799 10.22738661 10.125 13.625 C10.12757813 14.58664063 10.13015625 15.54828125 10.1328125 16.5390625 C10 19 10 19 9 21 C8.01 21 7.02 21 6 21 C5.71125 21.763125 5.4225 22.52625 5.125 23.3125 C4 26 4 26 2 29 C1.01 29 0.02 29 -1 29 C-1 25.7 -1 22.4 -1 19 C-0.67 19 -0.34 19 0 19 C0 21.31 0 23.62 0 26 C0.66 26 1.32 26 2 26 C2.28875 25.2575 2.5775 24.515 2.875 23.75 C3.82302644 21.43260203 4.84845911 19.22082885 6 17 C6.66 17 7.32 17 8 17 C7.93999894 15.3739713 7.8512115 13.74898451 7.75 12.125 C7.70359375 11.22007813 7.6571875 10.31515625 7.609375 9.3828125 C7.30773437 8.20332031 7.30773437 8.20332031 7 7 C5.04784655 5.83638482 5.04784655 5.83638482 3 5 C2.67 4.01 2.34 3.02 2 2 C1.34 2 0.68 2 0 2 C0 1.34 0 0.68 0 0 Z " fill="#D6EDB9" transform="translate(174,103)"/>
<path d="M0 0 C0.66 0 1.32 0 2 0 C0.85753726 3.42738823 -0.47400284 4.47400284 -3 7 C-3.61875 7.969375 -4.2375 8.93875 -4.875 9.9375 C-7 13 -7 13 -10.0625 15.4375 C-13.58237223 18.50802684 -14.47045714 20.66629523 -16 25 C-16.66 25 -17.32 25 -18 25 C-18.12375 25.804375 -18.2475 26.60875 -18.375 27.4375 C-18.684375 28.7059375 -18.684375 28.7059375 -19 30 C-19.66 30.33 -20.32 30.66 -21 31 C-19.80459929 23.53859775 -15.73315714 17.7474051 -11 12 C-10.67 11.01 -10.34 10.02 -10 9 C-8.22265625 7.24609375 -8.22265625 7.24609375 -6.0625 5.4375 C-3.96656037 3.66869432 -1.94005112 1.94005112 0 0 Z " fill="#DE7D31" transform="translate(40,101)"/>
<path d="M0 0 C2.97 0 5.94 0 9 0 C9 0.33 9 0.66 9 1 C6.77155786 1.6483289 4.5422154 2.29356369 2.3125 2.9375 C0.45044922 3.47697266 0.45044922 3.47697266 -1.44921875 4.02734375 C-4.29639862 4.80726431 -7.09802254 5.47287216 -10 6 C-10 6.66 -10 7.32 -10 8 C-17.92 11.96 -17.92 11.96 -26 16 C-25.34 14.68 -24.68 13.36 -24 12 C-22.66666667 11.66666667 -21.33333333 11.33333333 -20 11 C-18.83333333 9.08333333 -18.83333333 9.08333333 -18 7 C-15.63846645 4.63846645 -14.480908 4.5200425 -11.25 3.9375 C-9.91582031 3.69193359 -9.91582031 3.69193359 -8.5546875 3.44140625 C-2.46486486 2.38918919 -2.46486486 2.38918919 0 2 C0 1.34 0 0.68 0 0 Z " fill="#FAE2A1" transform="translate(86,68)"/>
<path d="M0 0 C-5.24175152 2.34205919 -10.53262809 4.25192871 -16 6 C-16 6.66 -16 7.32 -16 8 C-16.66 8 -17.32 8 -18 8 C-18 8.66 -18 9.32 -18 10 C-20.28929053 11.17154293 -22.58118362 12.33738074 -24.875 13.5 C-25.52597656 13.83386719 -26.17695312 14.16773437 -26.84765625 14.51171875 C-31.7734375 17 -31.7734375 17 -34 17 C-34 16.34 -34 15.68 -34 15 C-32.71086513 14.32845067 -31.41859796 13.66291141 -30.125 13 C-29.40570313 12.62875 -28.68640625 12.2575 -27.9453125 11.875 C-26 11 -26 11 -24 11 C-24 10.01 -24 9.02 -24 8 C-22.68 8 -21.36 8 -20 8 C-19.67 7.01 -19.34 6.02 -19 5 C-17.2578125 4.05078125 -17.2578125 4.05078125 -15.125 3.3125 C-14.42632812 3.06113281 -13.72765625 2.80976562 -13.0078125 2.55078125 C-11 2 -11 2 -8 2 C-8 1.34 -8 0.68 -8 0 C-2.25 -1.125 -2.25 -1.125 0 0 Z " fill="#EC9F59" transform="translate(104,95)"/>
<path d="M0 0 C0.85998596 0.0028299 1.71997192 0.00565979 2.60601807 0.00857544 C5.34686321 0.019751 8.08737898 0.04485071 10.828125 0.0703125 C12.68879736 0.0803457 14.54947485 0.08947095 16.41015625 0.09765625 C20.96627232 0.11968174 25.52214286 0.15419353 30.078125 0.1953125 C30.078125 1.1853125 30.078125 2.1753125 30.078125 3.1953125 C28.758125 3.1953125 27.438125 3.1953125 26.078125 3.1953125 C26.078125 2.5353125 26.078125 1.8753125 26.078125 1.1953125 C14.198125 1.5253125 2.318125 1.8553125 -9.921875 2.1953125 C-9.921875 2.8553125 -9.921875 3.5153125 -9.921875 4.1953125 C-14.18803816 5.33295601 -17.48673811 6.1953125 -21.921875 6.1953125 C-21.591875 5.2053125 -21.261875 4.2153125 -20.921875 3.1953125 C-19.684375 3.0715625 -18.446875 2.9478125 -17.171875 2.8203125 C-14.08812535 2.51523702 -14.08812535 2.51523702 -11.34570312 1.18164062 C-7.61745859 -0.33549353 -3.98502723 -0.0494163 0 0 Z " fill="#4D7CB2" transform="translate(117.921875,48.8046875)"/>
<path d="M0 0 C1.32 0 2.64 0 4 0 C4 0.66 4 1.32 4 2 C2.576875 2.37125 2.576875 2.37125 1.125 2.75 C-2.05852032 3.66239093 -2.05852032 3.66239093 -3.1875 5.9375 C-3.455625 6.618125 -3.72375 7.29875 -4 8 C-5.5 9.75 -5.5 9.75 -7 11 C-7.66 11 -8.32 11 -9 11 C-11.56764222 15.95188142 -13.22514384 20.44686418 -14 26 C-14.66 26 -15.32 26 -16 26 C-16 22.7 -16 19.4 -16 16 C-15.34 16 -14.68 16 -14 16 C-13.34 14.35 -12.68 12.7 -12 11 C-11.34 11 -10.68 11 -10 11 C-10 10.34 -10 9.68 -10 9 C-8.68 8.67 -7.36 8.34 -6 8 C-6 7.34 -6 6.68 -6 6 C-5.34 5.67 -4.68 5.34 -4 5 C-3.67 4.01 -3.34 3.02 -3 2 C-2.01 2 -1.02 2 0 2 C0 1.34 0 0.68 0 0 Z " fill="#ACBDE1" transform="translate(58,38)"/>
<path d="M0 0 C0.33 0 0.66 0 1 0 C0.98839844 1.05058594 0.97679687 2.10117188 0.96484375 3.18359375 C0.93332936 6.80559023 0.95304101 10.4254972 0.9921875 14.04736328 C0.99841337 15.60344134 0.95995349 17.15968021 0.90625 18.71484375 C1.00028735 25.21517539 4.66603436 28.61869669 9.06640625 33.12890625 C9.70449219 33.74636719 10.34257812 34.36382812 11 35 C10.67 35.66 10.34 36.32 10 37 C4.24106584 32.37643766 0.20011095 28.6913428 -1.6875 21.3125 C-2.3892446 13.87400724 -2.52115038 7.09073543 0 0 Z " fill="#E19574" transform="translate(18,132)"/>
<path d="M0 0 C9.24 0 18.48 0 28 0 C28 0.66 28 1.32 28 2 C30.64 2 33.28 2 36 2 C36 2.66 36 3.32 36 4 C36.60328125 4.02578125 37.2065625 4.0515625 37.828125 4.078125 C44.4373928 4.54716981 44.4373928 4.54716981 47.5625 7.0625 C48.036875 7.701875 48.51125 8.34125 49 9 C45.48294042 8.34728444 42.10674923 7.48606976 38.6875 6.4375 C37.80449219 6.16808594 36.92148438 5.89867187 36.01171875 5.62109375 C35.34785156 5.41613281 34.68398437 5.21117187 34 5 C34 4.34 34 3.68 34 3 C32.046875 3.03255208 30.09375 3.06510417 28.140625 3.09765625 C26 3 26 3 24.19140625 2.51367188 C21.69449663 1.92838914 19.35911978 1.78787115 16.796875 1.68359375 C15.32734375 1.62075195 15.32734375 1.62075195 13.828125 1.55664062 C12.81234375 1.51732422 11.7965625 1.47800781 10.75 1.4375 C9.71875 1.39431641 8.6875 1.35113281 7.625 1.30664062 C5.0834613 1.20074318 2.54182804 1.09866557 0 1 C0 0.67 0 0.34 0 0 Z " fill="#4B9CCA" transform="translate(96,29)"/>
<path d="M0 0 C2.31 0.66 4.62 1.32 7 2 C7 1.34 7 0.68 7 0 C7.8353125 0.433125 7.8353125 0.433125 8.6875 0.875 C11.00808578 2.06620729 11.00808578 2.06620729 13.625 2.875 C16.39919994 4.18909471 16.96368671 5.17369103 18 8 C11.46782525 8.71001899 6.42027337 6.68620124 1 3 C0.67 2.01 0.34 1.02 0 0 Z " fill="#D37B64" transform="translate(31,169)"/>
<path d="M0 0 C1.32 0.33 2.64 0.66 4 1 C3.16855469 1.99580078 3.16855469 1.99580078 2.3203125 3.01171875 C1.23363281 4.33623047 1.23363281 4.33623047 0.125 5.6875 C-0.59429687 6.55761719 -1.31359375 7.42773438 -2.0546875 8.32421875 C-5.22252762 12.68158919 -6.2617543 16.70923914 -7 22 C-7.66 22 -8.32 22 -9 22 C-9 19.36 -9 16.72 -9 14 C-8.34 14 -7.68 14 -7 14 C-7.1546875 12.39125 -7.1546875 12.39125 -7.3125 10.75 C-7 7 -7 7 -4.625 4.75 C-3.75875 4.1725 -2.8925 3.595 -2 3 C-1.34 2.01 -0.68 1.02 0 0 Z " fill="#E7F9D9" transform="translate(87,116)"/>
<path d="M0 0 C0.84111328 -0.01224609 1.68222656 -0.02449219 2.54882812 -0.03710938 C3.76795898 -0.04000977 3.76795898 -0.04000977 5.01171875 -0.04296875 C6.10746216 -0.04913208 6.10746216 -0.04913208 7.2253418 -0.05541992 C9.61137635 0.22228559 11.23762461 1.00624602 13.3125 2.1875 C12.6525 2.5175 11.9925 2.8475 11.3125 3.1875 C10.3225 2.8575 9.3325 2.5275 8.3125 2.1875 C5.57960707 1.95952438 2.86207796 1.77081813 0.125 1.625 C-0.62458984 1.58181641 -1.37417969 1.53863281 -2.14648438 1.49414062 C-3.99328375 1.38827315 -5.84036834 1.2874024 -7.6875 1.1875 C-7.6875 1.8475 -7.6875 2.5075 -7.6875 3.1875 C-9.60095327 3.72001766 -11.5184295 4.23809483 -13.4375 4.75 C-14.50484375 5.04003906 -15.5721875 5.33007812 -16.671875 5.62890625 C-19.53085927 6.15848494 -21.00347383 6.17120862 -23.6875 5.1875 C-23.0275 5.1875 -22.3675 5.1875 -21.6875 5.1875 C-21.6875 4.5275 -21.6875 3.8675 -21.6875 3.1875 C-14.72569786 0.02304448 -7.50820662 0.00583388 0 0 Z " fill="#9DCD54" transform="translate(159.6875,116.8125)"/>
<path d="M0 0 C1.04285156 -0.00257812 2.08570313 -0.00515625 3.16015625 -0.0078125 C4.24425781 -0.00007813 5.32835937 0.00765625 6.4453125 0.015625 C7.52167969 0.00789063 8.59804687 0.00015625 9.70703125 -0.0078125 C15.03412882 0.00532461 19.60394294 0.08526763 24.5703125 2.265625 C24.5703125 2.595625 24.5703125 2.925625 24.5703125 3.265625 C13.3503125 2.935625 2.1303125 2.605625 -9.4296875 2.265625 C-5.54609795 0.32383023 -4.14550961 0.00988203 0 0 Z " fill="#B6D97C" transform="translate(145.4296875,98.734375)"/>
<path d="M0 0 C1.32327301 0.00636726 1.32327301 0.00636726 2.67327881 0.01286316 C5.48562383 0.02963037 8.29724726 0.06727877 11.109375 0.10546875 C13.0182188 0.12051813 14.92707386 0.13420609 16.8359375 0.14648438 C21.51069389 0.17952748 26.18491218 0.2312962 30.859375 0.29296875 C30.859375 0.95296875 30.859375 1.61296875 30.859375 2.29296875 C32.179375 2.62296875 33.499375 2.95296875 34.859375 3.29296875 C32.219375 3.29296875 29.579375 3.29296875 26.859375 3.29296875 C26.859375 2.63296875 26.859375 1.97296875 26.859375 1.29296875 C16.299375 1.29296875 5.739375 1.29296875 -5.140625 1.29296875 C-5.140625 1.95296875 -5.140625 2.61296875 -5.140625 3.29296875 C-7.780625 3.29296875 -10.420625 3.29296875 -13.140625 3.29296875 C-9.3093206 -0.68040556 -5.14707502 -0.09328808 0 0 Z " fill="#D0E9F8" transform="translate(97.140625,26.70703125)"/>
<path d="M0 0 C1.32 0.33 2.64 0.66 4 1 C-2.78918823 6.39880981 -8.99144039 10.58894683 -17 14 C-17.99 14.66 -18.98 15.32 -20 16 C-18.48537063 11.91050069 -15.65078115 9.24602405 -12 7 C-9.32616352 6.06223361 -6.79804917 5.5306645 -4 5 C-4 4.34 -4 3.68 -4 3 C-2.68 2.67 -1.36 2.34 0 2 C0 1.34 0 0.68 0 0 Z " fill="#B4D67D" transform="translate(104,110)"/>
<path d="M0 0 C3.96 0 7.92 0 12 0 C12 0.66 12 1.32 12 2 C12.9075 2.12375 13.815 2.2475 14.75 2.375 C17.66369039 2.93532508 19.40408478 3.70204239 22 5 C23.546875 5.185625 23.546875 5.185625 25.125 5.375 C28 6 28 6 29.375 8.0625 C29.58125 8.701875 29.7875 9.34125 30 10 C27.11681798 10.35160756 24.87919471 10.55891664 22.359375 8.95703125 C21.80765625 8.51746094 21.2559375 8.07789063 20.6875 7.625 C16.7800543 4.53233558 12.85431349 3.73750341 8 3 C8 2.34 8 1.68 8 1 C5.36 1 2.72 1 0 1 C0 0.67 0 0.34 0 0 Z " fill="#8FBDE0" transform="translate(124,30)"/>
<path d="M0 0 C0 0.99 0 1.98 0 3 C-0.99 3 -1.98 3 -3 3 C-3 3.66 -3 4.32 -3 5 C-4.75 7.125 -4.75 7.125 -7 9 C-8.32 9 -9.64 9 -11 9 C-11.33 9.99 -11.66 10.98 -12 12 C-13.98689731 13.35278115 -15.98745218 14.68568305 -18 16 C-18.66 16.99 -19.32 17.98 -20 19 C-20.66 18.67 -21.32 18.34 -22 18 C-20.60919892 16.41224451 -19.21211596 14.82999061 -17.8125 13.25 C-16.64654297 11.92742187 -16.64654297 11.92742187 -15.45703125 10.578125 C-13.10396404 8.10908786 -10.76759767 5.99080975 -8 4 C-7.34 4 -6.68 4 -6 4 C-6 3.34 -6 2.68 -6 2 C-2.25 0 -2.25 0 0 0 Z " fill="#F7D6BA" transform="translate(66,116)"/>
<path d="M0 0 C2.31 0.33 4.62 0.66 7 1 C4.18840967 3.35255518 2.17740912 4.39495883 -1.4375 4.9375 C-8.76822162 6.23564862 -16.75616414 7.83744276 -23 12 C-21.84826645 9.53199953 -20.95216435 7.95216435 -19 6 C-15.875 5.875 -15.875 5.875 -13 6 C-13 5.34 -13 4.68 -13 4 C-11.71802734 3.81824219 -11.71802734 3.81824219 -10.41015625 3.6328125 C-9.30542969 3.46523437 -8.20070313 3.29765625 -7.0625 3.125 C-5.96035156 2.96257812 -4.85820313 2.80015625 -3.72265625 2.6328125 C-2.82417969 2.42398438 -1.92570312 2.21515625 -1 2 C-0.67 1.34 -0.34 0.68 0 0 Z " fill="#E7F5D1" transform="translate(123,100)"/>
<path d="M0 0 C2.31242092 2.16323247 4.0156396 4.37647804 5.6875 7.0625 C6.34298828 8.10083984 6.34298828 8.10083984 7.01171875 9.16015625 C8 11 8 11 8 13 C4.59403535 12.36235365 2.23986879 11.0508817 -0.625 9.125 C-1.40101563 8.61195312 -2.17703125 8.09890625 -2.9765625 7.5703125 C-5 6 -5 6 -7 3 C-7.99 2.34 -8.98 1.68 -10 1 C-7.6875 1.25 -7.6875 1.25 -5 2 C-3.9739266 3.31337396 -2.97272675 4.64664105 -2 6 C0.09415804 6.79623822 0.09415804 6.79623822 2 7 C1.34 4.69 0.68 2.38 0 0 Z " fill="#7279AF" transform="translate(170,56)"/>
<path d="M0 0 C-2.4510601 1.37259366 -4.64669438 2.17963733 -7.375 2.9375 C-13.13655887 4.61361322 -13.13655887 4.61361322 -18 8 C-19.51928038 8.07179964 -21.04167482 8.08392007 -22.5625 8.0625 C-23.38878906 8.05347656 -24.21507813 8.04445312 -25.06640625 8.03515625 C-25.70449219 8.02355469 -26.34257813 8.01195312 -27 8 C-26.01 7.67 -25.02 7.34 -24 7 C-24 6.34 -24 5.68 -24 5 C-21.36 4.67 -18.72 4.34 -16 4 C-16 3.34 -16 2.68 -16 2 C-14.08654673 1.46748234 -12.1690705 0.94940517 -10.25 0.4375 C-9.18265625 0.14746094 -8.1153125 -0.14257812 -7.015625 -0.44140625 C-4.15664073 -0.97098494 -2.68402617 -0.98370862 0 0 Z " fill="#CCEAA3" transform="translate(152,121)"/>
<path d="M0 0 C1.32 0.33 2.64 0.66 4 1 C4 1.99 4 2.98 4 4 C5.65 4 7.3 4 9 4 C9 5.32 9 6.64 9 8 C8 9 8 9 4.4375 9.0625 C3.303125 9.041875 2.16875 9.02125 1 9 C-0.4783226 6.04335481 -0.06032783 3.25770263 0 0 Z " fill="#8BC630" transform="translate(83,131)"/>
<path d="M0 0 C0 0.66 0 1.32 0 2 C-1.50390625 3.4453125 -1.50390625 3.4453125 -3.5625 5.125 C-12.00883907 12.32368012 -12.00883907 12.32368012 -17 22 C-18 20 -18 20 -17.0625 16.875 C-16.711875 15.92625 -16.36125 14.9775 -16 14 C-15.34 14 -14.68 14 -14 14 C-13.7525 13.05125 -13.505 12.1025 -13.25 11.125 C-12 8 -12 8 -9.9375 6.8125 C-9.298125 6.544375 -8.65875 6.27625 -8 6 C-7.67 5.01 -7.34 4.02 -7 3 C-2.66666667 0 -2.66666667 0 0 0 Z " fill="#D57228" transform="translate(54,121)"/>
<path d="M0 0 C1.15941038 3.47823115 0.70820884 5.45895578 0 9 C0.598125 8.814375 1.19625 8.62875 1.8125 8.4375 C4 8 4 8 7 9 C7.6875 11.0625 7.6875 11.0625 8 13 C1.9453125 13.1953125 1.9453125 13.1953125 0 13 C-2 11 -2 11 -2.1953125 8.6171875 C-2.17210937 7.71226563 -2.14890625 6.80734375 -2.125 5.875 C-2.10695312 4.96492188 -2.08890625 4.05484375 -2.0703125 3.1171875 C-2.04710937 2.41851562 -2.02390625 1.71984375 -2 1 C-1.34 0.67 -0.68 0.34 0 0 Z " fill="#293378" transform="translate(48,55)"/>
<path d="M0 0 C3.63 0 7.26 0 11 0 C11 0.33 11 0.66 11 1 C6.52193691 2.648176 2.26895492 4.0959718 -2.5 4.5625 C-3.655 4.706875 -4.81 4.85125 -6 5 C-6.33 5.66 -6.66 6.32 -7 7 C-9.64 7 -12.28 7 -15 7 C-15 6.01 -15 5.02 -15 4 C-13.50146484 3.81824219 -13.50146484 3.81824219 -11.97265625 3.6328125 C-10.68230469 3.46523438 -9.39195313 3.29765625 -8.0625 3.125 C-6.77472656 2.96257813 -5.48695312 2.80015625 -4.16015625 2.6328125 C-3.11730469 2.42398438 -2.07445313 2.21515625 -1 2 C-0.67 1.34 -0.34 0.68 0 0 Z " fill="#1B4B93" transform="translate(103,48)"/>
<path d="M0 0 C10.56 0 21.12 0 32 0 C32 0.33 32 0.66 32 1 C31.15703369 1.02505615 30.31406738 1.0501123 29.44555664 1.07592773 C26.32758326 1.17088155 23.20978497 1.27012448 20.09204102 1.37231445 C18.74085853 1.41571223 17.38961947 1.4573837 16.03833008 1.49731445 C14.09963299 1.55489952 12.16113724 1.61914298 10.22265625 1.68359375 C9.05484619 1.72025146 7.88703613 1.75690918 6.68383789 1.79467773 C4.08220205 1.70076188 4.08220205 1.70076188 3 3 C1.14712498 3.07226502 -0.70833878 3.0838122 -2.5625 3.0625 C-3.57441406 3.05347656 -4.58632812 3.04445313 -5.62890625 3.03515625 C-6.41136719 3.02355469 -7.19382812 3.01195312 -8 3 C-8 2.67 -8 2.34 -8 2 C-5.36 2 -2.72 2 0 2 C0 1.34 0 0.68 0 0 Z " fill="#8BC2E2" transform="translate(92,28)"/>
<path d="M0 0 C0.66 0.66 1.32 1.32 2 2 C1.67 2.33 1.34 2.66 1 3 C0.89867479 5.86392731 0.86139522 8.69869382 0.875 11.5625 C0.87113281 12.34947266 0.86726563 13.13644531 0.86328125 13.94726562 C0.87169622 19.05094459 1.27091535 23.94848491 2 29 C0.546875 27.9765625 0.546875 27.9765625 -1 26 C-1.411214 23.38585383 -1.65174538 21.00105058 -1.75 18.375 C-1.78528809 17.65948975 -1.82057617 16.94397949 -1.85693359 16.20678711 C-2.06909977 11.03098732 -1.89751014 6.11580782 -1 1 C-0.67 0.67 -0.34 0.34 0 0 Z " fill="#D26834" transform="translate(20,131)"/>
<path d="M0 0 C2.46800047 1.15173355 4.04783565 2.04783565 6 4 C6.5625 7.25 6.5625 7.25 6 11 C3.96706207 13.43634076 1.69849442 15.33328286 -1 17 C-1.66 17 -2.32 17 -3 17 C-3 17.66 -3 18.32 -3 19 C-3.99 19 -4.98 19 -6 19 C-6 18.01 -6 17.02 -6 16 C-5.236875 15.7525 -4.47375 15.505 -3.6875 15.25 C-0.73819971 13.87823242 0.17431019 12.6081283 2 10 C2.66 10 3.32 10 4 10 C2.99806563 6.20696275 2.18975773 3.28463659 0 0 Z " fill="#F3CB74" transform="translate(120,72)"/>
<path d="M0 0 C0.99033234 0.00636726 0.99033234 0.00636726 2.00067139 0.01286316 C4.09982891 0.0295944 6.19800996 0.06723324 8.296875 0.10546875 C9.72394442 0.12052291 11.15102896 0.13421004 12.578125 0.14648438 C16.06802317 0.17947874 19.5573537 0.23122132 23.046875 0.29296875 C23.046875 0.62296875 23.046875 0.95296875 23.046875 1.29296875 C22.03488037 1.33055298 22.03488037 1.33055298 21.00244141 1.36889648 C17.89212307 1.48623185 14.78200804 1.60832402 11.671875 1.73046875 C10.61097656 1.76978516 9.55007812 1.80910156 8.45703125 1.84960938 C1.95480787 2.10890049 -4.48729592 2.55512911 -10.953125 3.29296875 C-7.42761781 -0.0439469 -4.7539824 -0.06043198 0 0 Z " fill="#DFF3C4" transform="translate(140.953125,97.70703125)"/>
<path d="M0 0 C0 0.33 0 0.66 0 1 C-0.64066406 1.04898438 -1.28132813 1.09796875 -1.94140625 1.1484375 C-5.94315498 1.49434127 -9.62606111 1.89316032 -13.5 3 C-17.97149915 4.27757118 -22.37631941 4.64647915 -27 5 C-19.0760092 -1.30121273 -9.59485896 -0.22487951 0 0 Z " fill="#F0FCE5" transform="translate(165,121)"/>
<path d="M0 0 C0.66 0.33 1.32 0.66 2 1 C1.3503125 1.7734375 1.3503125 1.7734375 0.6875 2.5625 C-1.17955374 5.06821156 -1.17955374 5.06821156 -2.4375 8.5625 C-3.96860644 11.93093417 -4.87821479 13.16998798 -8 15 C-4.96774194 5.12903226 -4.96774194 5.12903226 -2 1 C-1.34 0.67 -0.68 0.34 0 0 Z " fill="#F7D6BA" transform="translate(32,104)"/>
<path d="M0 0 C1.28132813 0.00902344 2.56265625 0.01804687 3.8828125 0.02734375 C4.87023437 0.03894531 5.85765625 0.05054687 6.875 0.0625 C6.875 0.3925 6.875 0.7225 6.875 1.0625 C5.87597656 1.19527344 4.87695312 1.32804687 3.84765625 1.46484375 C2.55730469 1.64144531 1.26695312 1.81804687 -0.0625 2 C-1.35027344 2.17402344 -2.63804687 2.34804687 -3.96484375 2.52734375 C-6.97966313 2.72412423 -6.97966313 2.72412423 -8.125 4.0625 C-10.30792774 4.29731693 -12.49703174 4.47613323 -14.6875 4.625 C-15.88503906 4.70878906 -17.08257812 4.79257813 -18.31640625 4.87890625 C-19.24324219 4.93949219 -20.17007813 5.00007813 -21.125 5.0625 C-18.71753975 2.65503975 -17.42882074 2.57144574 -14.125 2 C-2.61778468 -0.02379804 -2.61778468 -0.02379804 0 0 Z " fill="#A5D062" transform="translate(137.125,100.9375)"/>
<path d="M0 0 C2.6875 -0.25 2.6875 -0.25 5 0 C4.67 0.66 4.34 1.32 4 2 C3.34 2 2.68 2 2 2 C2 2.66 2 3.32 2 4 C0.948125 4.5775 -0.10375 5.155 -1.1875 5.75 C-4.3786482 7.5661006 -7.19489535 9.61991121 -10 12 C-10.66 11.67 -11.32 11.34 -12 11 C-9.25964698 7.14320687 -7.3486351 5.67255196 -3 4 C-2.505 3.29875 -2.01 2.5975 -1.5 1.875 C-1.005 1.25625 -0.51 0.6375 0 0 Z " fill="#FDDBB1" transform="translate(54,84)"/>
<path d="M0 0 C0.66 0 1.32 0 2 0 C2.48474869 4.94443665 2.73685155 7.97659507 -0.25 12.125 C-3 14 -3 14 -5.3125 13.8125 C-5.869375 13.544375 -6.42625 13.27625 -7 13 C-5.37660195 11.29115995 -3.70680947 9.62553283 -2 8 C-1.34 8 -0.68 8 0 8 C0 5.36 0 2.72 0 0 Z " fill="#FDF3D7" transform="translate(126,75)"/>
<path d="M0 0 C0.45890625 0.40992188 0.9178125 0.81984375 1.390625 1.2421875 C2.00421875 1.78101563 2.6178125 2.31984375 3.25 2.875 C3.85328125 3.40867188 4.4565625 3.94234375 5.078125 4.4921875 C6.97418746 5.9797487 8.81290005 7.00322436 11 8 C11 8.66 11 9.32 11 10 C13.31 10.66 15.62 11.32 18 12 C15.69526085 12.7904896 14.39633563 13.12134332 12.03515625 12.3984375 C7.65526158 10.12609611 4.19244404 7.86962914 1 4 C0.37109375 1.84375 0.37109375 1.84375 0 0 Z " fill="#F4C8BA" transform="translate(21,162)"/>
<path d="M0 0 C-0.804375 0.45375 -1.60875 0.9075 -2.4375 1.375 C-5.08856572 2.74725665 -5.08856572 2.74725665 -6 5 C-8.33010909 5.67784992 -10.66359824 6.34416793 -13 7 C-13.66 7.66 -14.32 8.32 -15 9 C-14.80078125 6.6796875 -14.80078125 6.6796875 -14 4 C-11.85546875 2.3828125 -11.85546875 2.3828125 -9.1875 1.125 C-8.31480469 0.69445312 -7.44210938 0.26390625 -6.54296875 -0.1796875 C-3.81906883 -1.05836489 -2.63555368 -0.99524405 0 0 Z " fill="#FDF5E0" transform="translate(66,79)"/>
<path d="M0 0 C0.99 0.33 1.98 0.66 3 1 C8.7344416 1.38455821 14.32994856 0.82473475 20 0 C17 2 17 2 14 2 C14 2.66 14 3.32 14 4 C12.23050905 4.10815225 10.45912513 4.18566083 8.6875 4.25 C7.70136719 4.29640625 6.71523437 4.3428125 5.69921875 4.390625 C3 4 3 4 1.14453125 1.984375 C0.57798828 1.00210938 0.57798828 1.00210938 0 0 Z " fill="#BEDB8C" transform="translate(80,139)"/>
<path d="M0 0 C0.66 0 1.32 0 2 0 C0.68535639 4.60125265 -1.03331448 8.22421843 -4 12 C-4.99 12 -5.98 12 -7 12 C-7 8.7 -7 5.4 -7 2 C-6.67 2 -6.34 2 -6 2 C-6 4.31 -6 6.62 -6 9 C-5.34 9 -4.68 9 -4 9 C-3.71125 8.2575 -3.4225 7.515 -3.125 6.75 C-2.17697356 4.43260203 -1.15154089 2.22082885 0 0 Z " fill="#CBE2A4" transform="translate(180,120)"/>
<path d="M0 0 C0.66 0.33 1.32 0.66 2 1 C1.525625 2.19625 1.05125 3.3925 0.5625 4.625 C-0.73482773 8.06414238 -1.54236951 11.33895604 -2 15 C-2.66 15 -3.32 15 -4 15 C-4 11.7 -4 8.4 -4 5 C-3.34 5 -2.68 5 -2 5 C-1.34 3.35 -0.68 1.7 0 0 Z " fill="#CCD6EB" transform="translate(46,49)"/>
<path d="M0 0 C-6.03076923 4.92307692 -6.03076923 4.92307692 -10.9375 5.3125 C-11.948125 5.209375 -12.95875 5.10625 -14 5 C-13.34 4.67 -12.68 4.34 -12 4 C-12 3.34 -12 2.68 -12 2 C-10.75579353 1.4654744 -9.50429064 0.94791389 -8.25 0.4375 C-7.55390625 0.14746094 -6.8578125 -0.14257812 -6.140625 -0.44140625 C-3.69987216 -1.07831803 -2.3596345 -0.80248831 0 0 Z " fill="#9DA0CB" transform="translate(72,64)"/>
<path d="M0 0 C2.475 0.99 2.475 0.99 5 2 C5.33 4.31 5.66 6.62 6 9 C6.66 9 7.32 9 8 9 C8.66 11.31 9.32 13.62 10 16 C7.40336586 14.70168293 6.92892479 13.35379471 5.5625 10.8125 C5.12679687 10.00554688 4.69109375 9.19859375 4.2421875 8.3671875 C2.78851233 5.59697633 1.37018372 2.81248238 0 0 Z " fill="#C7CBE5" transform="translate(168,51)"/>
<path d="M0 0 C0 3.86695678 -1.41909971 6.5088452 -3 10 C-3.66 10 -4.32 10 -5 10 C-5.12375 10.804375 -5.2475 11.60875 -5.375 12.4375 C-5.58125 13.283125 -5.7875 14.12875 -6 15 C-6.99 15.495 -6.99 15.495 -8 16 C-7.41974158 12.31633699 -6.41183904 9.54472757 -4.5625 6.3125 C-4.13066406 5.54550781 -3.69882812 4.77851562 -3.25390625 3.98828125 C-2 2 -2 2 0 0 Z " fill="#DB864B" transform="translate(27,116)"/>
<path d="M0 0 C0.66 0.33 1.32 0.66 2 1 C-0.26557485 4.39836227 -1.30722534 4.64898488 -5 6 C-5.99 6.66 -6.98 7.32 -8 8 C-9.32 8 -10.64 8 -12 8 C-12 7.34 -12 6.68 -12 6 C-10.04669132 4.96958487 -8.08718472 3.9509107 -6.125 2.9375 C-5.03445312 2.36902344 -3.94390625 1.80054687 -2.8203125 1.21484375 C-1.42425781 0.61349609 -1.42425781 0.61349609 0 0 Z " fill="#F5FBE9" transform="translate(100,108)"/>
<path d="M0 0 C-2 3 -2 3 -4.3828125 3.51171875 C-5.28773437 3.56972656 -6.19265625 3.62773438 -7.125 3.6875 C-8.49011719 3.78611328 -8.49011719 3.78611328 -9.8828125 3.88671875 C-10.93082031 3.94279297 -10.93082031 3.94279297 -12 4 C-12 3.34 -12 2.68 -12 2 C-7.82262526 0.40861915 -4.46839215 -0.21278058 0 0 Z " fill="#FCEFD8" transform="translate(98,101)"/>
<path d="M0 0 C1.875 0.125 1.875 0.125 4 1 C6.14197494 3.90696599 7 5.35521088 7 9 C6.34 9 5.68 9 5 9 C5 8.01 5 7.02 5 6 C4.01 6 3.02 6 2 6 C0.3125 3.5 0.3125 3.5 -1 1 C-0.67 0.67 -0.34 0.34 0 0 Z " fill="#223B8A" transform="translate(165,54)"/>
<path d="M0 0 C0.33 0 0.66 0 1 0 C1.33 5.28 1.66 10.56 2 16 C-2 12 -2 12 -2.25 8.25 C-2.1675 7.1775 -2.085 6.105 -2 5 C-1.34 5 -0.68 5 0 5 C0 3.35 0 1.7 0 0 Z " fill="#CE5C2C" transform="translate(31,148)"/>
<path d="M0 0 C-2.70879335 1.35439668 -5.00933268 1.06501451 -8 1 C-8 1.66 -8 2.32 -8 3 C-10.64 3.66 -13.28 4.32 -16 5 C-15 2 -15 2 -12.8125 0.875 C-8.35523701 -0.51170404 -4.52186085 -1.56525952 0 0 Z " fill="#A0CD5C" transform="translate(136,125)"/>
<path d="M0 0 C0.33 0.99 0.66 1.98 1 3 C-0.26220093 5.04563599 -1.60287726 7.04402816 -3 9 C-3.69429379 10.3191582 -4.37530495 11.64649406 -5 13 C-5.17563129 8.5214021 -5.22085338 4.97415868 -3 1 C-2.01 0.67 -1.02 0.34 0 0 Z " fill="#F1D1BA" transform="translate(23,119)"/>
<path d="M0 0 C0 3 0 3 -0.9375 5.3125 C-2.08163121 8.20647895 -2.57108482 10.92610789 -3 14 C-3.66 14 -4.32 14 -5 14 C-5 11.36 -5 8.72 -5 6 C-4.34 6 -3.68 6 -3 6 C-2.87625 5.38125 -2.7525 4.7625 -2.625 4.125 C-2 2 -2 2 0 0 Z " fill="#D5E6AF" transform="translate(83,124)"/>
<path d="M0 0 C-0.67546875 0.19335938 -1.3509375 0.38671875 -2.046875 0.5859375 C-3.38492188 0.97652344 -3.38492188 0.97652344 -4.75 1.375 C-5.63171875 1.63023438 -6.5134375 1.88546875 -7.421875 2.1484375 C-9.98686548 2.92162317 -9.98686548 2.92162317 -12.1875 4.125 C-14 5 -14 5 -16.25 4.625 C-16.8275 4.41875 -17.405 4.2125 -18 4 C-12.76465351 0.28459281 -6.2849503 -1.99522232 0 0 Z " fill="#AFC1DD" transform="translate(96,57)"/>
<path d="M0 0 C2.64 0 5.28 0 8 0 C8 0.66 8 1.32 8 2 C-0.03571429 4.27678571 -0.03571429 4.27678571 -4 3 C-2.68 2.67 -1.36 2.34 0 2 C0 1.34 0 0.68 0 0 Z " fill="#B7D8F0" transform="translate(76,30)"/>
<path d="M0 0 C-0.66 0 -1.32 0 -2 0 C-2 0.66 -2 1.32 -2 2 C-3.96875 3.5078125 -3.96875 3.5078125 -6.5 5.125 C-7.3353125 5.66382812 -8.170625 6.20265625 -9.03125 6.7578125 C-9.6809375 7.16773437 -10.330625 7.57765625 -11 8 C-10.67 7.01 -10.34 6.02 -10 5 C-9.34 5 -8.68 5 -8 5 C-7.9175 4.38125 -7.835 3.7625 -7.75 3.125 C-7 1 -7 1 -5.125 -0.3125 C-3 -1 -3 -1 0 0 Z " fill="#E18F56" transform="translate(62,118)"/>
<path d="M0 0 C0.99 0.33 1.98 0.66 3 1 C2 2 1 3 0 4 C-0.639375 4.721875 -1.27875 5.44375 -1.9375 6.1875 C-4 8 -4 8 -8 8 C-8 7.34 -8 6.68 -8 6 C-2.58823529 2 -2.58823529 2 0 2 C0 1.34 0 0.68 0 0 Z " fill="#EDA013" transform="translate(68,80)"/>
<path d="M0 0 C-2.90600261 1.25664978 -4.79604584 2 -8 2 C-8 2.99 -8 3.98 -8 5 C-9.98 5 -11.96 5 -14 5 C-14 4.34 -14 3.68 -14 3 C-12.42274653 2.29866401 -10.83788667 1.614417 -9.25 0.9375 C-7.92742187 0.36322266 -7.92742187 0.36322266 -6.578125 -0.22265625 C-3.84743691 -1.04600008 -2.63098653 -0.9773992 0 0 Z " fill="#6CA0CC" transform="translate(76,35)"/>
<path d="M0 0 C0.99 0.33 1.98 0.66 3 1 C2.05125 1.886875 1.1025 2.77375 0.125 3.6875 C-2.46748883 6.26164575 -3.9525021 8.43850715 -5 12 C-6 10 -6 10 -5.0625 6.875 C-4.711875 5.92625 -4.36125 4.9775 -4 4 C-3.34 4 -2.68 4 -2 4 C-1.34 2.68 -0.68 1.36 0 0 Z " fill="#DD7843" transform="translate(42,131)"/>
<path d="M0 0 C0.99 0.495 0.99 0.495 2 1 C2 1.99 2 2.98 2 4 C2.99 3.01 3.98 2.02 5 1 C5.66 1.33 6.32 1.66 7 2 C5.68 4.31 4.36 6.62 3 9 C2.34 9 1.68 9 1 9 C0.67 6.03 0.34 3.06 0 0 Z " fill="#A4CC5A" transform="translate(173,120)"/>
<path d="M0 0 C0.66 0 1.32 0 2 0 C2.25 2.3125 2.25 2.3125 2 5 C0 6.8125 0 6.8125 -2 8 C-2.33 6.35 -2.66 4.7 -3 3 C-2.01 2.67 -1.02 2.34 0 2 C0 1.34 0 0.68 0 0 Z " fill="#8EC53D" transform="translate(118,106)"/>
<path d="M0 0 C2.475 0.99 2.475 0.99 5 2 C5 1.34 5 0.68 5 0 C5.66 0 6.32 0 7 0 C7 1.65 7 3.3 7 5 C4.69 4.67 2.38 4.34 0 4 C0 2.68 0 1.36 0 0 Z " fill="#CFCEDB" transform="translate(173,67)"/>
<path d="M0 0 C-2.88341534 4.21422242 -5.04303419 5.76075855 -10 7 C-4.4 -2.2 -4.4 -2.2 0 0 Z " fill="#5D8DBC" transform="translate(62,41)"/>
<path d="M0 0 C10.15317287 1.33041575 10.15317287 1.33041575 13.6875 4.125 C14.120625 4.74375 14.55375 5.3625 15 6 C11.48294042 5.34728444 8.10674923 4.48606976 4.6875 3.4375 C3.80449219 3.16808594 2.92148438 2.89867187 2.01171875 2.62109375 C1.34785156 2.41613281 0.68398437 2.21117187 0 2 C0 1.34 0 0.68 0 0 Z " fill="#2F86C3" transform="translate(130,32)"/>
<path d="M0 0 C2.64 0 5.28 0 8 0 C7.01 1.485 7.01 1.485 6 3 C3.8359375 3.29296875 3.8359375 3.29296875 1.375 3.1875 C0.55773437 3.16042969 -0.25953125 3.13335937 -1.1015625 3.10546875 C-1.72804688 3.07066406 -2.35453125 3.03585938 -3 3 C-2.01 2.67 -1.02 2.34 0 2 C0 1.34 0 0.68 0 0 Z " fill="#DAF0C0" transform="translate(128,126)"/>
<path d="M0 0 C0.66 0 1.32 0 2 0 C2 1.98 2 3.96 2 6 C1.34 6 0.68 6 0 6 C-0.66 7.32 -1.32 8.64 -2 10 C-2.625 8.125 -2.625 8.125 -3 6 C-2.34 5.34 -1.68 4.68 -1 4 C-0.3574765 1.93125966 -0.3574765 1.93125966 0 0 Z " fill="#E6A820" transform="translate(122,76)"/>
<path d="M0 0 C0 0.66 0 1.32 0 2 C-3.41831915 4.5393228 -5.75776898 5.3636198 -10 5 C-6.82795656 1.48809477 -4.74687042 0 0 0 Z " fill="#D4DDE5" transform="translate(78,62)"/>
<path d="M0 0 C1.03159626 3.09478879 0.97482862 4.52631393 0.5625 7.6875 C0.46066406 8.49574219 0.35882813 9.30398437 0.25390625 10.13671875 C0.17011719 10.75160156 0.08632813 11.36648437 0 12 C-0.66 11.67 -1.32 11.34 -2 11 C-2 7.7 -2 4.4 -2 1 C-1.34 0.67 -0.68 0.34 0 0 Z " fill="#314489" transform="translate(48,55)"/>
<path d="M0 0 C-3.00198845 3.00198845 -4.95805953 3.95992537 -9.25 4.125 C-10.1575 4.08375 -11.065 4.0425 -12 4 C-8.41084094 -0.78554541 -5.58334594 -0.37222306 0 0 Z " fill="#25408C" transform="translate(86,56)"/>
<path d="M0 0 C3.96 0 7.92 0 12 0 C12 0.66 12 1.32 12 2 C13.32 2.33 14.64 2.66 16 3 C13.36 3 10.72 3 8 3 C8 2.34 8 1.68 8 1 C5.36 1 2.72 1 0 1 C0 0.67 0 0.34 0 0 Z " fill="#99CCF0" transform="translate(124,30)"/>
<path d="M0 0 C1.9375 0.8125 1.9375 0.8125 4 2 C4.33 2.99 4.66 3.98 5 5 C1.625 5.125 1.625 5.125 -2 5 C-2.66 4.34 -3.32 3.68 -4 3 C-2.35 3 -0.7 3 1 3 C0.67 2.01 0.34 1.02 0 0 Z " fill="#E0B5AA" transform="translate(44,172)"/>
<path d="M0 0 C0.66 0.33 1.32 0.66 2 1 C-1.06093224 4.93548431 -3.49115974 7.68116787 -8 10 C-6.44303593 6.17836093 -3.96591316 3.81381505 -1 1 C-0.67 0.67 -0.34 0.34 0 0 Z " fill="#EDA855" transform="translate(49,91)"/>
<path d="M0 0 C3.63 0 7.26 0 11 0 C6.60171741 2.1991413 3.81449408 2.51855059 -1 3 C-0.67 2.01 -0.34 1.02 0 0 Z " fill="#6786BC" transform="translate(97,52)"/>
<path d="M0 0 C0.99 0 1.98 0 3 0 C3.66 1.32 4.32 2.64 5 4 C3 6 3 6 0.375 6.125 C-0.40875 6.08375 -1.1925 6.0425 -2 6 C-2 5.34 -2 4.68 -2 4 C-1.01 4 -0.02 4 1 4 C0.67 2.68 0.34 1.36 0 0 Z " fill="#134797" transform="translate(158,48)"/>
<path d="M0 0 C2.64 0 5.28 0 8 0 C7.360625 0.309375 6.72125 0.61875 6.0625 0.9375 C4.06389179 1.8345163 4.06389179 1.8345163 3 3 C1.14712498 3.07226502 -0.70833878 3.0838122 -2.5625 3.0625 C-3.57441406 3.05347656 -4.58632812 3.04445313 -5.62890625 3.03515625 C-6.41136719 3.02355469 -7.19382812 3.01195312 -8 3 C-8 2.67 -8 2.34 -8 2 C-5.36 2 -2.72 2 0 2 C0 1.34 0 0.68 0 0 Z " fill="#81BDDF" transform="translate(92,28)"/>
<path d="M0 0 C1.32 0 2.64 0 4 0 C3.67 1.65 3.34 3.3 3 5 C1.35 5.33 -0.3 5.66 -2 6 C-1.34 4.02 -0.68 2.04 0 0 Z " fill="#94C83A" transform="translate(111,127)"/>
<path d="M0 0 C0.66 0 1.32 0 2 0 C1.2890625 1.921875 1.2890625 1.921875 0 4 C-2.1640625 4.828125 -2.1640625 4.828125 -4.625 5.25 C-5.85089844 5.47429687 -5.85089844 5.47429687 -7.1015625 5.703125 C-7.72804688 5.80109375 -8.35453125 5.8990625 -9 6 C-5.67692308 2.06153846 -5.67692308 2.06153846 -2.25 1.75 C-1.5075 1.8325 -0.765 1.915 0 2 C0 1.34 0 0.68 0 0 Z " fill="#FCE6BF" transform="translate(117,89)"/>
<path d="M0 0 C0 0.66 0 1.32 0 2 C-2.75 4.1875 -2.75 4.1875 -6 6 C-8.203125 5.61328125 -8.203125 5.61328125 -10 5 C-8.71186658 4.16121545 -7.41936744 3.32913217 -6.125 2.5 C-5.40570313 2.0359375 -4.68640625 1.571875 -3.9453125 1.09375 C-2 0 -2 0 0 0 Z " fill="#EFB03F" transform="translate(68,80)"/>
<path d="M0 0 C0.90105469 0.02707031 1.80210938 0.05414063 2.73046875 0.08203125 C3.76107422 0.13423828 3.76107422 0.13423828 4.8125 0.1875 C4.8125 0.5175 4.8125 0.8475 4.8125 1.1875 C-3.61607143 3.47321429 -3.61607143 3.47321429 -8.1875 3.1875 C-5.67753317 0.01043235 -3.96125134 -0.15433447 0 0 Z " fill="#FEFCE5" transform="translate(95.1875,64.8125)"/>
<path d="M0 0 C0.33 0.66 0.66 1.32 1 2 C0.67 2.99 0.34 3.98 0 5 C-0.66 5 -1.32 5 -2 5 C-2.66 6.32 -3.32 7.64 -4 9 C-4.33 7.68 -4.66 6.36 -5 5 C-4.34 5 -3.68 5 -3 5 C-2.5359375 4.0409375 -2.5359375 4.0409375 -2.0625 3.0625 C-1 1 -1 1 0 0 Z " fill="#FCDFCC" transform="translate(43,135)"/>
<path d="M0 0 C2.31 0.33 4.62 0.66 7 1 C4.44931155 3.35448165 3.28982642 3.98327924 -0.25 4.1875 C-1.1575 4.125625 -2.065 4.06375 -3 4 C-2.01 2.68 -1.02 1.36 0 0 Z " fill="#CCEAA8" transform="translate(123,100)"/>
<path d="M0 0 C3.24208567 0.35049575 4.61527704 0.56221181 6.8125 3.0625 C7.204375 3.701875 7.59625 4.34125 8 5 C7.67 5.66 7.34 6.32 7 7 C5.83040013 6.02433888 4.66438823 5.044375 3.5 4.0625 C2.8503125 3.51722656 2.200625 2.97195312 1.53125 2.41015625 C1.0259375 1.94480469 0.520625 1.47945313 0 1 C0 0.67 0 0.34 0 0 Z " fill="#FBEFBB" transform="translate(118,69)"/>
<path d="M0 0 C0 0.33 0 0.66 0 1 C-1.57925975 1.39180108 -3.16368794 1.76280736 -4.75 2.125 C-5.63171875 2.33382812 -6.5134375 2.54265625 -7.421875 2.7578125 C-10.32875493 3.03088304 -11.56661348 2.53508028 -14 1 C-9.23692563 0.04738513 -4.8333472 -0.08333357 0 0 Z " fill="#EDF5F7" transform="translate(120,53)"/>
<path d="M0 0 C3.65316671 1.24976756 4.78065836 1.67098753 7 5 C4.69 4.67 2.38 4.34 0 4 C0 2.68 0 1.36 0 0 Z " fill="#5185BB" transform="translate(152,40)"/>
<path d="M0 0 C2.4375 0.8125 2.4375 0.8125 5 2 C5.33 2.99 5.66 3.98 6 5 C6.99 5 7.98 5 9 5 C9 5.99 9 6.98 9 8 C4.7257442 6.4169423 2.73468206 3.49431596 0 0 Z " fill="#365193" transform="translate(161,55)"/>
<path d="M0 0 C1.32 0 2.64 0 4 0 C4 0.66 4 1.32 4 2 C2.02 2.66 0.04 3.32 -2 4 C-2 4.66 -2 5.32 -2 6 C-2.66 5.67 -3.32 5.34 -4 5 C-3.67 4.01 -3.34 3.02 -3 2 C-2.01 2 -1.02 2 0 2 C0 1.34 0 0.68 0 0 Z " fill="#CFE2EF" transform="translate(58,38)"/>
<path d="M0 0 C1.70884005 1.62339805 3.37446717 3.29319053 5 5 C5 5.66 5 6.32 5 7 C3.35 6.67 1.7 6.34 0 6 C0 4.02 0 2.04 0 0 Z " fill="#C4522A" transform="translate(33,164)"/>
<path d="M0 0 C1.32 0.33 2.64 0.66 4 1 C1.03 3.475 1.03 3.475 -2 6 C-2.33 5.34 -2.66 4.68 -3 4 C-2.67 3.34 -2.34 2.68 -2 2 C-1.34 2 -0.68 2 0 2 C0 1.34 0 0.68 0 0 Z " fill="#AFD46A" transform="translate(104,110)"/>
<path d="M0 0 C6.52307692 0.61538462 6.52307692 0.61538462 8.9375 2.5625 C9.288125 3.036875 9.63875 3.51125 10 4 C3.47692308 3.38461538 3.47692308 3.38461538 1.0625 1.4375 C0.711875 0.963125 0.36125 0.48875 0 0 Z " fill="#87BF39" transform="translate(165,103)"/>
<path d="M0 0 C0.66 0.33 1.32 0.66 2 1 C0.02 3.31 -1.96 5.62 -4 8 C-4.33 7.34 -4.66 6.68 -5 6 C-3.86695008 2.60085025 -2.87481525 1.94745549 0 0 Z " fill="#FEDEBD" transform="translate(40,96)"/>
<path d="M0 0 C2.64 0 5.28 0 8 0 C8 0.66 8 1.32 8 2 C8.66 2 9.32 2 10 2 C10 2.66 10 3.32 10 4 C6.7 3.01 3.4 2.02 0 1 C0 0.67 0 0.34 0 0 Z " fill="#E6F4CD" transform="translate(164,99)"/>
<path d="M0 0 C2.64 0 5.28 0 8 0 C8 0.66 8 1.32 8 2 C5.69 2.33 3.38 2.66 1 3 C0.67 2.01 0.34 1.02 0 0 Z " fill="#1F3082" transform="translate(64,60)"/>
</svg>
